<svg xmlns="http://www.w3.org/2000/svg" xmlns:xlink="http://www.w3.org/1999/xlink" width="304" zoomAndPan="magnify" viewBox="0 0 228 83.249999" height="111" preserveAspectRatio="xMidYMid meet" version="1.0"><defs><g/><clipPath id="40f8972244"><path d="M 1.019531 0 L 226.980469 0 L 226.980469 82.507812 L 1.019531 82.507812 Z M 1.019531 0 " clip-rule="nonzero"/></clipPath><clipPath id="88cc442f17"><path d="M 17.125 2.746094 L 176 2.746094 L 176 49.972656 L 17.125 49.972656 Z M 17.125 2.746094 " clip-rule="nonzero"/></clipPath><clipPath id="9e287c6337"><path d="M 32 0.0234375 L 45 0.0234375 L 45 20 L 32 20 Z M 32 0.0234375 " clip-rule="nonzero"/></clipPath><clipPath id="ac9b1c443d"><path d="M 76 0.0234375 L 80 0.0234375 L 80 20 L 76 20 Z M 76 0.0234375 " clip-rule="nonzero"/></clipPath><clipPath id="47cb75446b"><path d="M 129 0.0234375 L 142 0.0234375 L 142 20 L 129 20 Z M 129 0.0234375 " clip-rule="nonzero"/></clipPath><clipPath id="5ff304c3e3"><path d="M 28 0.332031 L 32 0.332031 L 32 6 L 28 6 Z M 28 0.332031 " clip-rule="nonzero"/></clipPath><clipPath id="38df9eb829"><rect x="0" width="68" y="0" height="15"/></clipPath><clipPath id="96632d3e37"><rect x="0" width="179" y="0" height="50"/></clipPath><clipPath id="8d19c3b48a"><path d="M 152 0 L 185.199219 0 L 185.199219 29.730469 L 152 29.730469 Z M 152 0 " clip-rule="nonzero"/></clipPath></defs><g clip-path="url(#40f8972244)"><path fill="#ffffff" d="M 1.019531 0 L 226.980469 0 L 226.980469 82.507812 L 1.019531 82.507812 Z M 1.019531 0 " fill-opacity="1" fill-rule="nonzero"/></g><g transform="matrix(1, 0, 0, 1, 25, 24)"><g clip-path="url(#96632d3e37)"><g clip-path="url(#88cc442f17)"><path fill="#cf9ea6" d="M 170.257812 22.117188 C 168.066406 22.394531 164.578125 23.527344 166.199219 31.066406 C 167.699219 38.046875 166.621094 40.382812 164.628906 41.777344 C 119.074219 58.320312 92.964844 43.886719 69.894531 31.136719 C 64.320312 28.054688 58.894531 25.054688 53.441406 22.691406 C 54.445312 21.476562 55.417969 20.167969 56.359375 18.773438 C 61.519531 11.109375 63.953125 3.289062 63.976562 3.210938 C 64.027344 3.050781 63.9375 2.878906 63.773438 2.832031 C 63.613281 2.78125 63.445312 2.871094 63.394531 3.035156 C 63.367188 3.113281 60.957031 10.855469 55.839844 18.449219 C 54.960938 19.757812 53.960938 21.109375 52.851562 22.445312 C 47.136719 20.019531 41.386719 18.320312 35.410156 17.980469 C 26.761719 17.496094 20.496094 19.257812 18.234375 22.8125 C 17.183594 24.460938 17.132812 26.355469 18.097656 28.144531 C 19.589844 30.929688 23.941406 33.957031 31.664062 34.097656 C 36.855469 34.1875 41.789062 32.617188 46.328125 29.417969 C 48.675781 27.769531 50.917969 25.679688 53.035156 23.1875 C 58.519531 25.550781 63.984375 28.570312 69.601562 31.675781 C 80.859375 37.898438 93.617188 44.949219 109.125 48.074219 C 114.722656 49.203125 120.421875 49.769531 126.257812 49.769531 C 138.933594 49.769531 152.25 47.101562 166.550781 41.71875 C 166.585938 41.707031 166.613281 41.6875 166.640625 41.667969 C 170.226562 40.230469 175.21875 36.984375 175.890625 29.953125 C 176.480469 23.714844 172.660156 21.8125 170.265625 22.117188 Z M 32.09375 33.484375 C 31.953125 33.484375 31.8125 33.484375 31.671875 33.480469 C 24.214844 33.34375 20.046875 30.484375 18.632812 27.851562 C 17.777344 26.265625 17.820312 24.589844 18.746094 23.136719 C 19.675781 21.675781 22.820312 18.503906 32.550781 18.503906 C 33.433594 18.503906 34.375 18.53125 35.371094 18.585938 C 41.203125 18.914062 46.832031 20.566406 52.433594 22.929688 C 47.695312 28.433594 40.9375 33.484375 32.089844 33.484375 Z M 32.09375 33.484375 " fill-opacity="1" fill-rule="nonzero"/></g><g fill="#7e6f71" fill-opacity="1"><g transform="translate(0.327773, 19.693171)"><g><path d="M 9.71875 0.234375 C 8.007812 0.234375 6.507812 -0.101562 5.21875 -0.78125 C 3.9375 -1.46875 2.941406 -2.425781 2.234375 -3.65625 C 1.535156 -4.894531 1.1875 -6.347656 1.1875 -8.015625 C 1.1875 -9.265625 1.390625 -10.421875 1.796875 -11.484375 C 2.210938 -12.554688 2.796875 -13.488281 3.546875 -14.28125 C 4.304688 -15.070312 5.191406 -15.6875 6.203125 -16.125 C 7.210938 -16.570312 8.320312 -16.796875 9.53125 -16.796875 C 10.46875 -16.796875 11.3125 -16.710938 12.0625 -16.546875 C 12.8125 -16.378906 13.4375 -16.191406 13.9375 -15.984375 C 14.445312 -15.785156 14.800781 -15.625 15 -15.5 L 15.09375 -13.046875 L 14.90625 -13 C 14.644531 -13.550781 14.257812 -14.082031 13.75 -14.59375 C 13.25 -15.113281 12.609375 -15.539062 11.828125 -15.875 C 11.054688 -16.21875 10.128906 -16.390625 9.046875 -16.390625 C 7.796875 -16.390625 6.679688 -16.109375 5.703125 -15.546875 C 4.722656 -14.984375 3.941406 -14.175781 3.359375 -13.125 C 2.785156 -12.070312 2.488281 -10.800781 2.46875 -9.3125 C 2.457031 -8.1875 2.625 -7.082031 2.96875 -6 C 3.320312 -4.914062 3.835938 -3.929688 4.515625 -3.046875 C 5.191406 -2.160156 6.023438 -1.453125 7.015625 -0.921875 C 8.015625 -0.398438 9.140625 -0.140625 10.390625 -0.140625 C 11.085938 -0.140625 11.734375 -0.257812 12.328125 -0.5 C 12.921875 -0.75 13.4375 -1.0625 13.875 -1.4375 C 14.320312 -1.820312 14.640625 -2.210938 14.828125 -2.609375 L 14.78125 -5.34375 C 14.769531 -5.863281 14.695312 -6.253906 14.5625 -6.515625 C 14.425781 -6.785156 14.09375 -6.972656 13.5625 -7.078125 L 13.5625 -7.34375 L 16.0625 -7.34375 L 16.0625 -2.78125 C 15.757812 -2.289062 15.285156 -1.8125 14.640625 -1.34375 C 14.003906 -0.875 13.257812 -0.492188 12.40625 -0.203125 C 11.5625 0.0859375 10.664062 0.234375 9.71875 0.234375 Z M 9.71875 0.234375 "/></g></g></g><g fill="#7e6f71" fill-opacity="1"><g transform="translate(18.370175, 19.693171)"><g><path d="M 10.203125 0 C 9.878906 0 9.71875 -0.15625 9.71875 -0.46875 L 9.71875 -5.015625 C 9.445312 -3.984375 9.035156 -3.070312 8.484375 -2.28125 C 7.929688 -1.488281 7.296875 -0.867188 6.578125 -0.421875 C 5.867188 0.015625 5.140625 0.234375 4.390625 0.234375 C 3.804688 0.234375 3.25 0.117188 2.71875 -0.109375 C 2.1875 -0.335938 1.757812 -0.679688 1.4375 -1.140625 C 1.113281 -1.597656 0.953125 -2.175781 0.953125 -2.875 C 0.953125 -3.71875 1.195312 -4.394531 1.6875 -4.90625 C 2.175781 -5.425781 2.820312 -5.84375 3.625 -6.15625 C 4.425781 -6.46875 5.273438 -6.742188 6.171875 -6.984375 L 9.703125 -7.90625 C 9.628906 -9.070312 9.300781 -9.953125 8.71875 -10.546875 C 8.144531 -11.140625 7.289062 -11.4375 6.15625 -11.4375 C 5.394531 -11.4375 4.65625 -11.25 3.9375 -10.875 C 3.226562 -10.5 2.585938 -9.941406 2.015625 -9.203125 L 1.8125 -9.359375 C 2.507812 -10.242188 3.269531 -10.910156 4.09375 -11.359375 C 4.914062 -11.816406 5.816406 -12.046875 6.796875 -12.046875 C 8.234375 -12.046875 9.285156 -11.671875 9.953125 -10.921875 C 10.617188 -10.171875 10.953125 -9.1875 10.953125 -7.96875 L 10.953125 -3.015625 C 10.953125 -2.285156 10.984375 -1.734375 11.046875 -1.359375 C 11.109375 -0.992188 11.210938 -0.734375 11.359375 -0.578125 C 11.503906 -0.429688 11.6875 -0.328125 11.90625 -0.265625 L 11.90625 0 Z M 2.25 -3.34375 C 2.269531 -2.582031 2.515625 -1.96875 2.984375 -1.5 C 3.460938 -1.039062 4.113281 -0.8125 4.9375 -0.8125 C 5.632812 -0.8125 6.269531 -0.984375 6.84375 -1.328125 C 7.425781 -1.679688 7.929688 -2.148438 8.359375 -2.734375 C 8.785156 -3.316406 9.117188 -3.960938 9.359375 -4.671875 C 9.597656 -5.378906 9.71875 -6.085938 9.71875 -6.796875 L 9.71875 -7.625 L 6.28125 -6.71875 C 5.019531 -6.394531 4.03125 -5.992188 3.3125 -5.515625 C 2.59375 -5.035156 2.238281 -4.3125 2.25 -3.34375 Z M 2.25 -3.34375 "/></g></g></g><g clip-path="url(#9e287c6337)"><g fill="#7e6f71" fill-opacity="1"><g transform="translate(31.658367, 19.693171)"><g><path d="M 7.03125 0.21875 C 6.394531 0.21875 5.785156 0.128906 5.203125 -0.046875 C 4.617188 -0.222656 4.097656 -0.445312 3.640625 -0.71875 C 3.179688 -1 2.820312 -1.273438 2.5625 -1.546875 L 2.015625 0 L 1.78125 0 L 1.78125 -15.609375 C 1.78125 -16.265625 1.75 -16.75 1.6875 -17.0625 C 1.632812 -17.375 1.535156 -17.597656 1.390625 -17.734375 C 1.253906 -17.867188 1.066406 -17.984375 0.828125 -18.078125 L 0.828125 -18.296875 L 2.859375 -19.171875 L 3.015625 -19.03125 L 3.015625 -10.140625 C 3.679688 -10.648438 4.425781 -11.09375 5.25 -11.46875 C 6.070312 -11.851562 6.992188 -12.046875 8.015625 -12.046875 C 8.898438 -12.046875 9.710938 -11.816406 10.453125 -11.359375 C 11.203125 -10.910156 11.804688 -10.25 12.265625 -9.375 C 12.722656 -8.507812 12.953125 -7.441406 12.953125 -6.171875 C 12.953125 -5.429688 12.832031 -4.6875 12.59375 -3.9375 C 12.351562 -3.195312 11.988281 -2.515625 11.5 -1.890625 C 11.007812 -1.265625 10.390625 -0.757812 9.640625 -0.375 C 8.898438 0 8.03125 0.195312 7.03125 0.21875 Z M 3.015625 -3.84375 C 3.015625 -3.320312 3.21875 -2.78125 3.625 -2.21875 C 4.039062 -1.65625 4.59375 -1.179688 5.28125 -0.796875 C 5.976562 -0.410156 6.753906 -0.21875 7.609375 -0.21875 C 8.828125 -0.21875 9.832031 -0.632812 10.625 -1.46875 C 11.414062 -2.3125 11.8125 -3.582031 11.8125 -5.28125 C 11.8125 -6.34375 11.648438 -7.335938 11.328125 -8.265625 C 11.015625 -9.203125 10.519531 -9.960938 9.84375 -10.546875 C 9.175781 -11.140625 8.316406 -11.4375 7.265625 -11.4375 C 6.398438 -11.4375 5.609375 -11.269531 4.890625 -10.9375 C 4.179688 -10.601562 3.554688 -10.226562 3.015625 -9.8125 Z M 3.015625 -3.84375 "/></g></g></g></g><g fill="#7e6f71" fill-opacity="1"><g transform="translate(46.396596, 19.693171)"><g><path d="M 0.875 0 L 0.875 -0.265625 C 1.101562 -0.328125 1.285156 -0.429688 1.421875 -0.578125 C 1.566406 -0.734375 1.671875 -0.992188 1.734375 -1.359375 C 1.796875 -1.734375 1.828125 -2.285156 1.828125 -3.015625 L 1.828125 -8.484375 C 1.828125 -9.128906 1.796875 -9.609375 1.734375 -9.921875 C 1.679688 -10.242188 1.582031 -10.472656 1.4375 -10.609375 C 1.300781 -10.742188 1.113281 -10.859375 0.875 -10.953125 L 0.875 -11.171875 L 2.90625 -12.046875 L 3.0625 -11.90625 L 3.0625 -8.890625 C 3.25 -9.398438 3.5 -9.863281 3.8125 -10.28125 C 4.132812 -10.695312 4.445312 -11.023438 4.75 -11.265625 C 5.050781 -11.484375 5.40625 -11.664062 5.8125 -11.8125 C 6.21875 -11.96875 6.695312 -12.046875 7.25 -12.046875 C 7.800781 -12.046875 8.203125 -11.984375 8.453125 -11.859375 C 8.710938 -11.742188 8.84375 -11.617188 8.84375 -11.484375 C 8.84375 -11.222656 8.726562 -10.96875 8.5 -10.71875 C 8.269531 -10.46875 7.992188 -10.34375 7.671875 -10.34375 C 7.390625 -10.34375 7.003906 -10.398438 6.515625 -10.515625 C 6.035156 -10.628906 5.476562 -10.769531 4.84375 -10.9375 C 4.570312 -10.769531 4.304688 -10.5 4.046875 -10.125 C 3.785156 -9.757812 3.5625 -9.363281 3.375 -8.9375 C 3.195312 -8.507812 3.09375 -8.113281 3.0625 -7.75 L 3.0625 -3.015625 C 3.0625 -2.285156 3.09375 -1.734375 3.15625 -1.359375 C 3.21875 -0.992188 3.320312 -0.734375 3.46875 -0.578125 C 3.613281 -0.429688 3.796875 -0.328125 4.015625 -0.265625 L 4.015625 0 Z M 0.875 0 "/></g></g></g><g fill="#7e6f71" fill-opacity="1"><g transform="translate(56.285531, 19.693171)"><g><path d="M 0.875 0 L 0.875 -0.265625 C 1.101562 -0.328125 1.285156 -0.429688 1.421875 -0.578125 C 1.566406 -0.734375 1.671875 -0.992188 1.734375 -1.359375 C 1.796875 -1.734375 1.828125 -2.285156 1.828125 -3.015625 L 1.828125 -8.484375 C 1.828125 -9.128906 1.796875 -9.609375 1.734375 -9.921875 C 1.679688 -10.242188 1.582031 -10.472656 1.4375 -10.609375 C 1.300781 -10.742188 1.113281 -10.859375 0.875 -10.953125 L 0.875 -11.171875 L 2.90625 -12.046875 L 3.0625 -11.90625 L 3.0625 -3.015625 C 3.0625 -2.285156 3.09375 -1.734375 3.15625 -1.359375 C 3.21875 -0.992188 3.320312 -0.734375 3.46875 -0.578125 C 3.613281 -0.429688 3.796875 -0.328125 4.015625 -0.265625 L 4.015625 0 Z M 1.328125 -15.1875 C 1.328125 -15.457031 1.421875 -15.6875 1.609375 -15.875 C 1.804688 -16.0625 2.039062 -16.15625 2.3125 -16.15625 C 2.59375 -16.15625 2.820312 -16.0625 3 -15.875 C 3.1875 -15.6875 3.28125 -15.457031 3.28125 -15.1875 C 3.28125 -14.914062 3.179688 -14.6875 2.984375 -14.5 C 2.796875 -14.3125 2.570312 -14.21875 2.3125 -14.21875 C 2.039062 -14.21875 1.804688 -14.3125 1.609375 -14.5 C 1.421875 -14.6875 1.328125 -14.914062 1.328125 -15.1875 Z M 1.328125 -15.1875 "/></g></g></g><g fill="#7e6f71" fill-opacity="1"><g transform="translate(61.966987, 19.693171)"><g><path d="M 6.625 0.234375 C 5.976562 0.234375 5.320312 0.113281 4.65625 -0.125 C 3.988281 -0.375 3.378906 -0.738281 2.828125 -1.21875 C 2.273438 -1.707031 1.828125 -2.320312 1.484375 -3.0625 C 1.140625 -3.8125 0.96875 -4.6875 0.96875 -5.6875 C 0.96875 -6.914062 1.238281 -8.007812 1.78125 -8.96875 C 2.332031 -9.925781 3.082031 -10.675781 4.03125 -11.21875 C 4.988281 -11.769531 6.0625 -12.046875 7.25 -12.046875 C 8.613281 -12.046875 9.707031 -11.660156 10.53125 -10.890625 C 11.363281 -10.128906 11.8125 -9.132812 11.875 -7.90625 L 2.328125 -7.90625 C 2.234375 -7.46875 2.1875 -6.992188 2.1875 -6.484375 C 2.1875 -5.347656 2.410156 -4.347656 2.859375 -3.484375 C 3.316406 -2.628906 3.941406 -1.96875 4.734375 -1.5 C 5.535156 -1.039062 6.460938 -0.8125 7.515625 -0.8125 C 8.472656 -0.8125 9.289062 -1.015625 9.96875 -1.421875 C 10.65625 -1.835938 11.300781 -2.382812 11.90625 -3.0625 L 12.09375 -2.875 C 11.425781 -2.050781 10.632812 -1.328125 9.71875 -0.703125 C 8.8125 -0.078125 7.78125 0.234375 6.625 0.234375 Z M 2.375 -8.203125 L 10.546875 -8.203125 C 10.503906 -8.503906 10.390625 -8.847656 10.203125 -9.234375 C 10.023438 -9.617188 9.769531 -9.992188 9.4375 -10.359375 C 9.101562 -10.722656 8.6875 -11.023438 8.1875 -11.265625 C 7.6875 -11.515625 7.097656 -11.640625 6.421875 -11.640625 C 5.398438 -11.640625 4.535156 -11.332031 3.828125 -10.71875 C 3.128906 -10.101562 2.644531 -9.265625 2.375 -8.203125 Z M 2.375 -8.203125 "/></g></g></g><g clip-path="url(#ac9b1c443d)"><g fill="#7e6f71" fill-opacity="1"><g transform="translate(75.540433, 19.693171)"><g><path d="M 1.09375 0 L 1.09375 -0.265625 C 1.3125 -0.328125 1.492188 -0.429688 1.640625 -0.578125 C 1.785156 -0.734375 1.890625 -0.992188 1.953125 -1.359375 C 2.015625 -1.734375 2.046875 -2.285156 2.046875 -3.015625 L 2.046875 -15.609375 C 2.046875 -16.265625 2.015625 -16.75 1.953125 -17.0625 C 1.890625 -17.375 1.789062 -17.597656 1.65625 -17.734375 C 1.519531 -17.867188 1.332031 -17.984375 1.09375 -18.078125 L 1.09375 -18.296875 L 3.109375 -19.171875 L 3.28125 -19.03125 L 3.28125 -3.015625 C 3.28125 -2.285156 3.3125 -1.734375 3.375 -1.359375 C 3.4375 -0.992188 3.535156 -0.734375 3.671875 -0.578125 C 3.816406 -0.429688 4.003906 -0.328125 4.234375 -0.265625 L 4.234375 0 Z M 1.09375 0 "/></g></g></g></g><g fill="#7e6f71" fill-opacity="1"><g transform="translate(81.673539, 19.693171)"><g><path d="M 6.625 0.234375 C 5.976562 0.234375 5.320312 0.113281 4.65625 -0.125 C 3.988281 -0.375 3.378906 -0.738281 2.828125 -1.21875 C 2.273438 -1.707031 1.828125 -2.320312 1.484375 -3.0625 C 1.140625 -3.8125 0.96875 -4.6875 0.96875 -5.6875 C 0.96875 -6.914062 1.238281 -8.007812 1.78125 -8.96875 C 2.332031 -9.925781 3.082031 -10.675781 4.03125 -11.21875 C 4.988281 -11.769531 6.0625 -12.046875 7.25 -12.046875 C 8.613281 -12.046875 9.707031 -11.660156 10.53125 -10.890625 C 11.363281 -10.128906 11.8125 -9.132812 11.875 -7.90625 L 2.328125 -7.90625 C 2.234375 -7.46875 2.1875 -6.992188 2.1875 -6.484375 C 2.1875 -5.347656 2.410156 -4.347656 2.859375 -3.484375 C 3.316406 -2.628906 3.941406 -1.96875 4.734375 -1.5 C 5.535156 -1.039062 6.460938 -0.8125 7.515625 -0.8125 C 8.472656 -0.8125 9.289062 -1.015625 9.96875 -1.421875 C 10.65625 -1.835938 11.300781 -2.382812 11.90625 -3.0625 L 12.09375 -2.875 C 11.425781 -2.050781 10.632812 -1.328125 9.71875 -0.703125 C 8.8125 -0.078125 7.78125 0.234375 6.625 0.234375 Z M 2.375 -8.203125 L 10.546875 -8.203125 C 10.503906 -8.503906 10.390625 -8.847656 10.203125 -9.234375 C 10.023438 -9.617188 9.769531 -9.992188 9.4375 -10.359375 C 9.101562 -10.722656 8.6875 -11.023438 8.1875 -11.265625 C 7.6875 -11.515625 7.097656 -11.640625 6.421875 -11.640625 C 5.398438 -11.640625 4.535156 -11.332031 3.828125 -10.71875 C 3.128906 -10.101562 2.644531 -9.265625 2.375 -8.203125 Z M 2.375 -8.203125 "/></g></g></g><g fill="#7e6f71" fill-opacity="1"><g transform="translate(95.246985, 19.693171)"><g/></g></g><g fill="#7e6f71" fill-opacity="1"><g transform="translate(101.189928, 19.693171)"><g><path d="M 5.015625 0 L 5.015625 -0.265625 C 5.234375 -0.328125 5.414062 -0.429688 5.5625 -0.578125 C 5.707031 -0.734375 5.8125 -0.992188 5.875 -1.359375 C 5.9375 -1.734375 5.96875 -2.285156 5.96875 -3.015625 L 5.96875 -16.328125 L 4.328125 -16.328125 C 3.609375 -16.328125 3.023438 -16.257812 2.578125 -16.125 C 2.128906 -15.988281 1.753906 -15.765625 1.453125 -15.453125 C 1.160156 -15.148438 0.898438 -14.742188 0.671875 -14.234375 L 0.453125 -14.28125 L 0.59375 -16.640625 L 12.640625 -16.640625 L 12.78125 -14.28125 L 12.578125 -14.234375 C 12.335938 -14.742188 12.070312 -15.148438 11.78125 -15.453125 C 11.488281 -15.765625 11.113281 -15.988281 10.65625 -16.125 C 10.207031 -16.257812 9.625 -16.328125 8.90625 -16.328125 L 7.3125 -16.328125 L 7.3125 -3.015625 C 7.3125 -2.285156 7.34375 -1.734375 7.40625 -1.359375 C 7.476562 -0.992188 7.582031 -0.734375 7.71875 -0.578125 C 7.863281 -0.429688 8.046875 -0.328125 8.265625 -0.265625 L 8.265625 0 Z M 5.015625 0 "/></g></g></g><g fill="#7e6f71" fill-opacity="1"><g transform="translate(115.191255, 19.693171)"><g><path d="M 10.203125 0 C 9.878906 0 9.71875 -0.15625 9.71875 -0.46875 L 9.71875 -5.015625 C 9.445312 -3.984375 9.035156 -3.070312 8.484375 -2.28125 C 7.929688 -1.488281 7.296875 -0.867188 6.578125 -0.421875 C 5.867188 0.015625 5.140625 0.234375 4.390625 0.234375 C 3.804688 0.234375 3.25 0.117188 2.71875 -0.109375 C 2.1875 -0.335938 1.757812 -0.679688 1.4375 -1.140625 C 1.113281 -1.597656 0.953125 -2.175781 0.953125 -2.875 C 0.953125 -3.71875 1.195312 -4.394531 1.6875 -4.90625 C 2.175781 -5.425781 2.820312 -5.84375 3.625 -6.15625 C 4.425781 -6.46875 5.273438 -6.742188 6.171875 -6.984375 L 9.703125 -7.90625 C 9.628906 -9.070312 9.300781 -9.953125 8.71875 -10.546875 C 8.144531 -11.140625 7.289062 -11.4375 6.15625 -11.4375 C 5.394531 -11.4375 4.65625 -11.25 3.9375 -10.875 C 3.226562 -10.5 2.585938 -9.941406 2.015625 -9.203125 L 1.8125 -9.359375 C 2.507812 -10.242188 3.269531 -10.910156 4.09375 -11.359375 C 4.914062 -11.816406 5.816406 -12.046875 6.796875 -12.046875 C 8.234375 -12.046875 9.285156 -11.671875 9.953125 -10.921875 C 10.617188 -10.171875 10.953125 -9.1875 10.953125 -7.96875 L 10.953125 -3.015625 C 10.953125 -2.285156 10.984375 -1.734375 11.046875 -1.359375 C 11.109375 -0.992188 11.210938 -0.734375 11.359375 -0.578125 C 11.503906 -0.429688 11.6875 -0.328125 11.90625 -0.265625 L 11.90625 0 Z M 2.25 -3.34375 C 2.269531 -2.582031 2.515625 -1.96875 2.984375 -1.5 C 3.460938 -1.039062 4.113281 -0.8125 4.9375 -0.8125 C 5.632812 -0.8125 6.269531 -0.984375 6.84375 -1.328125 C 7.425781 -1.679688 7.929688 -2.148438 8.359375 -2.734375 C 8.785156 -3.316406 9.117188 -3.960938 9.359375 -4.671875 C 9.597656 -5.378906 9.71875 -6.085938 9.71875 -6.796875 L 9.71875 -7.625 L 6.28125 -6.71875 C 5.019531 -6.394531 4.03125 -5.992188 3.3125 -5.515625 C 2.59375 -5.035156 2.238281 -4.3125 2.25 -3.34375 Z M 2.25 -3.34375 "/></g></g></g><g clip-path="url(#47cb75446b)"><g fill="#7e6f71" fill-opacity="1"><g transform="translate(128.47944, 19.693171)"><g><path d="M 7.03125 0.21875 C 6.394531 0.21875 5.785156 0.128906 5.203125 -0.046875 C 4.617188 -0.222656 4.097656 -0.445312 3.640625 -0.71875 C 3.179688 -1 2.820312 -1.273438 2.5625 -1.546875 L 2.015625 0 L 1.78125 0 L 1.78125 -15.609375 C 1.78125 -16.265625 1.75 -16.75 1.6875 -17.0625 C 1.632812 -17.375 1.535156 -17.597656 1.390625 -17.734375 C 1.253906 -17.867188 1.066406 -17.984375 0.828125 -18.078125 L 0.828125 -18.296875 L 2.859375 -19.171875 L 3.015625 -19.03125 L 3.015625 -10.140625 C 3.679688 -10.648438 4.425781 -11.09375 5.25 -11.46875 C 6.070312 -11.851562 6.992188 -12.046875 8.015625 -12.046875 C 8.898438 -12.046875 9.710938 -11.816406 10.453125 -11.359375 C 11.203125 -10.910156 11.804688 -10.25 12.265625 -9.375 C 12.722656 -8.507812 12.953125 -7.441406 12.953125 -6.171875 C 12.953125 -5.429688 12.832031 -4.6875 12.59375 -3.9375 C 12.351562 -3.195312 11.988281 -2.515625 11.5 -1.890625 C 11.007812 -1.265625 10.390625 -0.757812 9.640625 -0.375 C 8.898438 0 8.03125 0.195312 7.03125 0.21875 Z M 3.015625 -3.84375 C 3.015625 -3.320312 3.21875 -2.78125 3.625 -2.21875 C 4.039062 -1.65625 4.59375 -1.179688 5.28125 -0.796875 C 5.976562 -0.410156 6.753906 -0.21875 7.609375 -0.21875 C 8.828125 -0.21875 9.832031 -0.632812 10.625 -1.46875 C 11.414062 -2.3125 11.8125 -3.582031 11.8125 -5.28125 C 11.8125 -6.34375 11.648438 -7.335938 11.328125 -8.265625 C 11.015625 -9.203125 10.519531 -9.960938 9.84375 -10.546875 C 9.175781 -11.140625 8.316406 -11.4375 7.265625 -11.4375 C 6.398438 -11.4375 5.609375 -11.269531 4.890625 -10.9375 C 4.179688 -10.601562 3.554688 -10.226562 3.015625 -9.8125 Z M 3.015625 -3.84375 "/></g></g></g></g><g fill="#7e6f71" fill-opacity="1"><g transform="translate(143.217676, 19.693171)"><g><path d="M 7.078125 0.234375 C 6.347656 0.234375 5.617188 0.113281 4.890625 -0.125 C 4.160156 -0.375 3.503906 -0.75 2.921875 -1.25 C 2.335938 -1.757812 1.863281 -2.398438 1.5 -3.171875 C 1.144531 -3.941406 0.96875 -4.859375 0.96875 -5.921875 C 0.96875 -7.117188 1.25 -8.175781 1.8125 -9.09375 C 2.375 -10.019531 3.125 -10.742188 4.0625 -11.265625 C 5 -11.785156 6.003906 -12.046875 7.078125 -12.046875 C 7.828125 -12.046875 8.554688 -11.921875 9.265625 -11.671875 C 9.984375 -11.429688 10.640625 -11.0625 11.234375 -10.5625 C 11.828125 -10.0625 12.296875 -9.421875 12.640625 -8.640625 C 12.992188 -7.867188 13.171875 -6.953125 13.171875 -5.890625 C 13.171875 -4.878906 12.988281 -3.988281 12.625 -3.21875 C 12.257812 -2.445312 11.773438 -1.804688 11.171875 -1.296875 C 10.566406 -0.796875 9.90625 -0.414062 9.1875 -0.15625 C 8.476562 0.101562 7.773438 0.234375 7.078125 0.234375 Z M 2.203125 -6.828125 C 2.203125 -6.015625 2.335938 -5.210938 2.609375 -4.421875 C 2.878906 -3.640625 3.257812 -2.929688 3.75 -2.296875 C 4.238281 -1.671875 4.816406 -1.164062 5.484375 -0.78125 C 6.148438 -0.40625 6.878906 -0.21875 7.671875 -0.21875 C 8.585938 -0.21875 9.367188 -0.425781 10.015625 -0.84375 C 10.660156 -1.257812 11.148438 -1.820312 11.484375 -2.53125 C 11.828125 -3.25 12 -4.050781 12 -4.9375 C 12 -5.71875 11.863281 -6.503906 11.59375 -7.296875 C 11.320312 -8.085938 10.945312 -8.8125 10.46875 -9.46875 C 9.988281 -10.125 9.414062 -10.648438 8.75 -11.046875 C 8.082031 -11.441406 7.351562 -11.640625 6.5625 -11.640625 C 5.625 -11.640625 4.828125 -11.429688 4.171875 -11.015625 C 3.523438 -10.597656 3.035156 -10.023438 2.703125 -9.296875 C 2.367188 -8.566406 2.203125 -7.742188 2.203125 -6.828125 Z M 2.203125 -6.828125 "/></g></g></g><g fill="#7e6f71" fill-opacity="1"><g transform="translate(158.169842, 19.693171)"><g><path d="M 0.875 0 L 0.875 -0.265625 C 1.101562 -0.328125 1.285156 -0.429688 1.421875 -0.578125 C 1.566406 -0.734375 1.671875 -0.992188 1.734375 -1.359375 C 1.796875 -1.734375 1.828125 -2.285156 1.828125 -3.015625 L 1.828125 -8.484375 C 1.828125 -9.128906 1.796875 -9.609375 1.734375 -9.921875 C 1.679688 -10.242188 1.582031 -10.472656 1.4375 -10.609375 C 1.300781 -10.742188 1.113281 -10.859375 0.875 -10.953125 L 0.875 -11.171875 L 2.90625 -12.046875 L 3.0625 -11.90625 L 3.0625 -9.84375 C 3.789062 -10.4375 4.609375 -10.953125 5.515625 -11.390625 C 6.421875 -11.828125 7.332031 -12.046875 8.25 -12.046875 C 9.5 -12.046875 10.457031 -11.671875 11.125 -10.921875 C 11.789062 -10.171875 12.125 -9.085938 12.125 -7.671875 L 12.125 -3.015625 C 12.125 -2.285156 12.15625 -1.734375 12.21875 -1.359375 C 12.28125 -0.992188 12.378906 -0.734375 12.515625 -0.578125 C 12.660156 -0.429688 12.847656 -0.328125 13.078125 -0.265625 L 13.078125 0 L 9.9375 0 L 9.9375 -0.265625 C 10.15625 -0.328125 10.332031 -0.429688 10.46875 -0.578125 C 10.613281 -0.734375 10.71875 -0.992188 10.78125 -1.359375 C 10.851562 -1.734375 10.890625 -2.285156 10.890625 -3.015625 L 10.890625 -7.171875 C 10.890625 -10.015625 9.675781 -11.4375 7.25 -11.4375 C 6.5 -11.4375 5.753906 -11.234375 5.015625 -10.828125 C 4.285156 -10.421875 3.632812 -9.972656 3.0625 -9.484375 L 3.0625 -3.015625 C 3.0625 -2.285156 3.09375 -1.734375 3.15625 -1.359375 C 3.21875 -0.992188 3.320312 -0.734375 3.46875 -0.578125 C 3.613281 -0.429688 3.796875 -0.328125 4.015625 -0.265625 L 4.015625 0 Z M 0.875 0 "/></g></g></g><g fill="#7e6f71" fill-opacity="1"><g transform="translate(172.62281, 19.693171)"><g><path d="M 0.875 0 L 0.875 -0.265625 C 1.101562 -0.328125 1.285156 -0.429688 1.421875 -0.578125 C 1.566406 -0.734375 1.671875 -0.992188 1.734375 -1.359375 C 1.796875 -1.734375 1.828125 -2.285156 1.828125 -3.015625 L 1.828125 -8.484375 C 1.828125 -9.128906 1.796875 -9.609375 1.734375 -9.921875 C 1.679688 -10.242188 1.582031 -10.472656 1.4375 -10.609375 C 1.300781 -10.742188 1.113281 -10.859375 0.875 -10.953125 L 0.875 -11.171875 L 2.90625 -12.046875 L 3.0625 -11.90625 L 3.0625 -3.015625 C 3.0625 -2.285156 3.09375 -1.734375 3.15625 -1.359375 C 3.21875 -0.992188 3.320312 -0.734375 3.46875 -0.578125 C 3.613281 -0.429688 3.796875 -0.328125 4.015625 -0.265625 L 4.015625 0 Z M 1.328125 -15.1875 C 1.328125 -15.457031 1.421875 -15.6875 1.609375 -15.875 C 1.804688 -16.0625 2.039062 -16.15625 2.3125 -16.15625 C 2.59375 -16.15625 2.820312 -16.0625 3 -15.875 C 3.1875 -15.6875 3.28125 -15.457031 3.28125 -15.1875 C 3.28125 -14.914062 3.179688 -14.6875 2.984375 -14.5 C 2.796875 -14.3125 2.570312 -14.21875 2.3125 -14.21875 C 2.039062 -14.21875 1.804688 -14.3125 1.609375 -14.5 C 1.421875 -14.6875 1.328125 -14.914062 1.328125 -15.1875 Z M 1.328125 -15.1875 "/></g></g></g><g transform="matrix(1, 0, 0, 1, 91, 23)"><g clip-path="url(#38df9eb829)"><g fill="#7e6f71" fill-opacity="1"><g transform="translate(8.02537, 5.65394)"><g><path d="M 1.734375 -4.015625 C 2.046875 -4.015625 2.296875 -3.910156 2.484375 -3.703125 C 2.671875 -3.503906 2.765625 -3.238281 2.765625 -2.90625 C 2.765625 -2.570312 2.671875 -2.300781 2.484375 -2.09375 C 2.296875 -1.894531 2.046875 -1.796875 1.734375 -1.796875 L 0.890625 -1.796875 C 0.867188 -1.796875 0.859375 -1.789062 0.859375 -1.78125 L 0.859375 -0.0625 C 0.859375 -0.0195312 0.835938 0 0.796875 0 L 0.515625 0 C 0.472656 0 0.453125 -0.0195312 0.453125 -0.0625 L 0.453125 -3.96875 C 0.453125 -4 0.472656 -4.015625 0.515625 -4.015625 Z M 1.6875 -2.140625 C 1.882812 -2.140625 2.046875 -2.207031 2.171875 -2.34375 C 2.296875 -2.476562 2.359375 -2.660156 2.359375 -2.890625 C 2.359375 -3.128906 2.296875 -3.316406 2.171875 -3.453125 C 2.046875 -3.597656 1.882812 -3.671875 1.6875 -3.671875 L 0.890625 -3.671875 C 0.867188 -3.671875 0.859375 -3.660156 0.859375 -3.640625 L 0.859375 -2.15625 C 0.859375 -2.144531 0.867188 -2.140625 0.890625 -2.140625 Z M 1.6875 -2.140625 "/></g></g></g><g fill="#7e6f71" fill-opacity="1"><g transform="translate(13.585921, 5.65394)"><g><path d="M 1.4375 0.046875 C 1.082031 0.046875 0.796875 -0.046875 0.578125 -0.234375 C 0.367188 -0.421875 0.265625 -0.675781 0.265625 -1 L 0.265625 -1.15625 C 0.265625 -1.1875 0.285156 -1.203125 0.328125 -1.203125 L 0.609375 -1.203125 C 0.648438 -1.203125 0.671875 -1.1875 0.671875 -1.15625 L 0.671875 -1.015625 C 0.671875 -0.804688 0.738281 -0.632812 0.875 -0.5 C 1.019531 -0.375 1.21875 -0.3125 1.46875 -0.3125 C 1.6875 -0.3125 1.859375 -0.367188 1.984375 -0.484375 C 2.117188 -0.609375 2.1875 -0.769531 2.1875 -0.96875 C 2.1875 -1.101562 2.15625 -1.21875 2.09375 -1.3125 C 2.03125 -1.40625 1.941406 -1.492188 1.828125 -1.578125 C 1.710938 -1.660156 1.539062 -1.757812 1.3125 -1.875 C 1.082031 -2 0.898438 -2.109375 0.765625 -2.203125 C 0.628906 -2.304688 0.515625 -2.425781 0.421875 -2.5625 C 0.335938 -2.695312 0.296875 -2.863281 0.296875 -3.0625 C 0.296875 -3.375 0.394531 -3.617188 0.59375 -3.796875 C 0.800781 -3.972656 1.070312 -4.0625 1.40625 -4.0625 C 1.757812 -4.0625 2.039062 -3.960938 2.25 -3.765625 C 2.457031 -3.566406 2.5625 -3.3125 2.5625 -3 L 2.5625 -2.859375 C 2.5625 -2.816406 2.539062 -2.796875 2.5 -2.796875 L 2.21875 -2.796875 C 2.175781 -2.796875 2.15625 -2.816406 2.15625 -2.859375 L 2.15625 -2.984375 C 2.15625 -3.203125 2.085938 -3.375 1.953125 -3.5 C 1.816406 -3.632812 1.628906 -3.703125 1.390625 -3.703125 C 1.171875 -3.703125 1 -3.644531 0.875 -3.53125 C 0.757812 -3.425781 0.703125 -3.269531 0.703125 -3.0625 C 0.703125 -2.9375 0.726562 -2.828125 0.78125 -2.734375 C 0.84375 -2.648438 0.925781 -2.570312 1.03125 -2.5 C 1.144531 -2.425781 1.316406 -2.328125 1.546875 -2.203125 C 1.804688 -2.054688 2.003906 -1.929688 2.140625 -1.828125 C 2.273438 -1.734375 2.382812 -1.617188 2.46875 -1.484375 C 2.550781 -1.359375 2.59375 -1.195312 2.59375 -1 C 2.59375 -0.675781 2.488281 -0.421875 2.28125 -0.234375 C 2.082031 -0.046875 1.800781 0.046875 1.4375 0.046875 Z M 1.4375 0.046875 "/></g></g></g><g fill="#7e6f71" fill-opacity="1"><g transform="translate(19.049121, 5.65394)"><g><path d="M 0.53125 0 C 0.488281 0 0.46875 -0.0195312 0.46875 -0.0625 L 0.46875 -3.953125 C 0.46875 -3.992188 0.488281 -4.015625 0.53125 -4.015625 L 0.828125 -4.015625 C 0.867188 -4.015625 0.890625 -3.992188 0.890625 -3.953125 L 0.890625 -0.0625 C 0.890625 -0.0195312 0.867188 0 0.828125 0 Z M 0.53125 0 "/></g></g></g><g fill="#7e6f71" fill-opacity="1"><g transform="translate(23.006215, 5.65394)"><g><path d="M 1.53125 0.046875 C 1.175781 0.046875 0.890625 -0.0546875 0.671875 -0.265625 C 0.460938 -0.472656 0.359375 -0.742188 0.359375 -1.078125 L 0.359375 -2.9375 C 0.359375 -3.28125 0.460938 -3.550781 0.671875 -3.75 C 0.890625 -3.957031 1.175781 -4.0625 1.53125 -4.0625 C 1.875 -4.0625 2.148438 -3.957031 2.359375 -3.75 C 2.578125 -3.550781 2.6875 -3.285156 2.6875 -2.953125 L 2.6875 -2.890625 C 2.6875 -2.859375 2.664062 -2.84375 2.625 -2.84375 L 2.34375 -2.828125 C 2.300781 -2.828125 2.28125 -2.84375 2.28125 -2.875 L 2.28125 -2.953125 C 2.28125 -3.179688 2.207031 -3.363281 2.0625 -3.5 C 1.925781 -3.632812 1.75 -3.703125 1.53125 -3.703125 C 1.300781 -3.703125 1.117188 -3.632812 0.984375 -3.5 C 0.847656 -3.363281 0.78125 -3.179688 0.78125 -2.953125 L 0.78125 -1.0625 C 0.78125 -0.832031 0.847656 -0.648438 0.984375 -0.515625 C 1.117188 -0.378906 1.300781 -0.3125 1.53125 -0.3125 C 1.75 -0.3125 1.925781 -0.378906 2.0625 -0.515625 C 2.207031 -0.648438 2.28125 -0.832031 2.28125 -1.0625 L 2.28125 -1.140625 C 2.28125 -1.171875 2.300781 -1.1875 2.34375 -1.1875 L 2.625 -1.171875 C 2.664062 -1.171875 2.6875 -1.148438 2.6875 -1.109375 L 2.6875 -1.078125 C 2.6875 -0.734375 2.578125 -0.457031 2.359375 -0.25 C 2.148438 -0.0507812 1.875 0.046875 1.53125 0.046875 Z M 1.53125 0.046875 "/></g></g></g><g clip-path="url(#5ff304c3e3)"><g fill="#7e6f71" fill-opacity="1"><g transform="translate(28.618305, 5.65394)"><g><path d="M 1.546875 0.046875 C 1.304688 0.046875 1.097656 0 0.921875 -0.09375 C 0.742188 -0.195312 0.601562 -0.335938 0.5 -0.515625 C 0.40625 -0.691406 0.359375 -0.894531 0.359375 -1.125 L 0.359375 -2.890625 C 0.359375 -3.117188 0.40625 -3.320312 0.5 -3.5 C 0.601562 -3.675781 0.742188 -3.8125 0.921875 -3.90625 C 1.097656 -4.007812 1.304688 -4.0625 1.546875 -4.0625 C 1.773438 -4.0625 1.976562 -4.007812 2.15625 -3.90625 C 2.332031 -3.8125 2.46875 -3.675781 2.5625 -3.5 C 2.664062 -3.320312 2.71875 -3.117188 2.71875 -2.890625 L 2.71875 -1.125 C 2.71875 -0.894531 2.664062 -0.691406 2.5625 -0.515625 C 2.46875 -0.335938 2.332031 -0.195312 2.15625 -0.09375 C 1.976562 0 1.773438 0.046875 1.546875 0.046875 Z M 1.546875 -0.3125 C 1.773438 -0.3125 1.957031 -0.382812 2.09375 -0.53125 C 2.238281 -0.675781 2.3125 -0.863281 2.3125 -1.09375 L 2.3125 -2.90625 C 2.3125 -3.144531 2.238281 -3.335938 2.09375 -3.484375 C 1.957031 -3.628906 1.773438 -3.703125 1.546875 -3.703125 C 1.316406 -3.703125 1.128906 -3.628906 0.984375 -3.484375 C 0.847656 -3.335938 0.78125 -3.144531 0.78125 -2.90625 L 0.78125 -1.09375 C 0.78125 -0.863281 0.847656 -0.675781 0.984375 -0.53125 C 1.128906 -0.382812 1.316406 -0.3125 1.546875 -0.3125 Z M 1.34375 -4.390625 C 1.320312 -4.390625 1.304688 -4.394531 1.296875 -4.40625 C 1.296875 -4.414062 1.300781 -4.429688 1.3125 -4.453125 L 1.65625 -5.078125 C 1.675781 -5.109375 1.703125 -5.125 1.734375 -5.125 L 1.96875 -5.125 C 2 -5.125 2.015625 -5.113281 2.015625 -5.09375 C 2.023438 -5.082031 2.023438 -5.066406 2.015625 -5.046875 L 1.609375 -4.421875 C 1.597656 -4.398438 1.578125 -4.390625 1.546875 -4.390625 Z M 1.34375 -4.390625 "/></g></g></g></g><g fill="#7e6f71" fill-opacity="1"><g transform="translate(34.304844, 5.65394)"><g><path d="M 0.53125 0 C 0.488281 0 0.46875 -0.0195312 0.46875 -0.0625 L 0.46875 -3.953125 C 0.46875 -3.992188 0.488281 -4.015625 0.53125 -4.015625 L 0.828125 -4.015625 C 0.867188 -4.015625 0.890625 -3.992188 0.890625 -3.953125 L 0.890625 -0.375 C 0.890625 -0.363281 0.894531 -0.359375 0.90625 -0.359375 L 2.578125 -0.359375 C 2.609375 -0.359375 2.625 -0.335938 2.625 -0.296875 L 2.625 -0.0625 C 2.625 -0.0195312 2.609375 0 2.578125 0 Z M 0.53125 0 "/></g></g></g><g fill="#7e6f71" fill-opacity="1"><g transform="translate(39.664964, 5.65394)"><g><path d="M 1.546875 0.046875 C 1.304688 0.046875 1.097656 0 0.921875 -0.09375 C 0.742188 -0.195312 0.601562 -0.335938 0.5 -0.515625 C 0.40625 -0.691406 0.359375 -0.894531 0.359375 -1.125 L 0.359375 -2.890625 C 0.359375 -3.117188 0.40625 -3.320312 0.5 -3.5 C 0.601562 -3.675781 0.742188 -3.8125 0.921875 -3.90625 C 1.097656 -4.007812 1.304688 -4.0625 1.546875 -4.0625 C 1.773438 -4.0625 1.976562 -4.007812 2.15625 -3.90625 C 2.332031 -3.8125 2.46875 -3.675781 2.5625 -3.5 C 2.664062 -3.320312 2.71875 -3.117188 2.71875 -2.890625 L 2.71875 -1.125 C 2.71875 -0.894531 2.664062 -0.691406 2.5625 -0.515625 C 2.46875 -0.335938 2.332031 -0.195312 2.15625 -0.09375 C 1.976562 0 1.773438 0.046875 1.546875 0.046875 Z M 1.546875 -0.3125 C 1.773438 -0.3125 1.957031 -0.382812 2.09375 -0.53125 C 2.238281 -0.675781 2.3125 -0.863281 2.3125 -1.09375 L 2.3125 -2.90625 C 2.3125 -3.144531 2.238281 -3.335938 2.09375 -3.484375 C 1.957031 -3.628906 1.773438 -3.703125 1.546875 -3.703125 C 1.316406 -3.703125 1.128906 -3.628906 0.984375 -3.484375 C 0.847656 -3.335938 0.78125 -3.144531 0.78125 -2.90625 L 0.78125 -1.09375 C 0.78125 -0.863281 0.847656 -0.675781 0.984375 -0.53125 C 1.128906 -0.382812 1.316406 -0.3125 1.546875 -0.3125 Z M 1.546875 -0.3125 "/></g></g></g><g fill="#7e6f71" fill-opacity="1"><g transform="translate(45.351504, 5.65394)"><g><path d="M 1.53125 0.046875 C 1.175781 0.046875 0.890625 -0.0507812 0.671875 -0.25 C 0.460938 -0.457031 0.359375 -0.726562 0.359375 -1.0625 L 0.359375 -2.953125 C 0.359375 -3.285156 0.460938 -3.550781 0.671875 -3.75 C 0.890625 -3.957031 1.175781 -4.0625 1.53125 -4.0625 C 1.757812 -4.0625 1.957031 -4.015625 2.125 -3.921875 C 2.300781 -3.828125 2.4375 -3.695312 2.53125 -3.53125 C 2.632812 -3.375 2.6875 -3.1875 2.6875 -2.96875 L 2.6875 -2.8125 C 2.6875 -2.769531 2.664062 -2.75 2.625 -2.75 L 2.328125 -2.75 C 2.296875 -2.75 2.28125 -2.769531 2.28125 -2.8125 L 2.28125 -2.96875 C 2.28125 -3.1875 2.207031 -3.363281 2.0625 -3.5 C 1.925781 -3.632812 1.75 -3.703125 1.53125 -3.703125 C 1.300781 -3.703125 1.117188 -3.632812 0.984375 -3.5 C 0.847656 -3.363281 0.78125 -3.179688 0.78125 -2.953125 L 0.78125 -1.0625 C 0.78125 -0.832031 0.847656 -0.648438 0.984375 -0.515625 C 1.117188 -0.378906 1.300781 -0.3125 1.53125 -0.3125 C 1.757812 -0.3125 1.941406 -0.375 2.078125 -0.5 C 2.210938 -0.632812 2.28125 -0.8125 2.28125 -1.03125 L 2.28125 -1.65625 C 2.28125 -1.675781 2.269531 -1.6875 2.25 -1.6875 L 1.578125 -1.6875 C 1.546875 -1.6875 1.53125 -1.703125 1.53125 -1.734375 L 1.53125 -1.984375 C 1.53125 -2.015625 1.546875 -2.03125 1.578125 -2.03125 L 2.625 -2.03125 C 2.664062 -2.03125 2.6875 -2.015625 2.6875 -1.984375 L 2.6875 -1.078125 C 2.6875 -0.734375 2.578125 -0.457031 2.359375 -0.25 C 2.148438 -0.0507812 1.875 0.046875 1.53125 0.046875 Z M 1.53125 0.046875 "/></g></g></g><g fill="#7e6f71" fill-opacity="1"><g transform="translate(50.997957, 5.65394)"><g><path d="M 2.421875 0 C 2.390625 0 2.367188 -0.015625 2.359375 -0.046875 L 2.171875 -0.765625 C 2.160156 -0.773438 2.148438 -0.78125 2.140625 -0.78125 L 0.765625 -0.78125 C 0.753906 -0.78125 0.742188 -0.773438 0.734375 -0.765625 L 0.546875 -0.046875 C 0.535156 -0.015625 0.515625 0 0.484375 0 L 0.1875 0 C 0.164062 0 0.148438 -0.00390625 0.140625 -0.015625 C 0.128906 -0.0234375 0.128906 -0.0390625 0.140625 -0.0625 L 1.203125 -3.96875 C 1.210938 -4 1.234375 -4.015625 1.265625 -4.015625 L 1.640625 -4.015625 C 1.671875 -4.015625 1.691406 -4 1.703125 -3.96875 L 2.78125 -0.0625 L 2.78125 -0.046875 C 2.78125 -0.015625 2.757812 0 2.71875 0 Z M 0.84375 -1.140625 C 0.832031 -1.140625 0.828125 -1.132812 0.828125 -1.125 C 0.835938 -1.125 0.847656 -1.125 0.859375 -1.125 L 2.046875 -1.125 C 2.054688 -1.125 2.0625 -1.125 2.0625 -1.125 C 2.070312 -1.132812 2.070312 -1.140625 2.0625 -1.140625 L 1.46875 -3.453125 C 1.457031 -3.453125 1.445312 -3.453125 1.4375 -3.453125 Z M 0.84375 -1.140625 "/></g></g></g><g fill="#7e6f71" fill-opacity="1"><g transform="translate(56.507629, 5.65394)"><g/></g></g><g fill="#7e6f71" fill-opacity="1"><g transform="translate(0.680703, 13.289411)"><g><path d="M 1.53125 0.046875 C 1.175781 0.046875 0.890625 -0.0546875 0.671875 -0.265625 C 0.460938 -0.472656 0.359375 -0.742188 0.359375 -1.078125 L 0.359375 -2.9375 C 0.359375 -3.28125 0.460938 -3.550781 0.671875 -3.75 C 0.890625 -3.957031 1.175781 -4.0625 1.53125 -4.0625 C 1.875 -4.0625 2.148438 -3.957031 2.359375 -3.75 C 2.578125 -3.550781 2.6875 -3.285156 2.6875 -2.953125 L 2.6875 -2.890625 C 2.6875 -2.859375 2.664062 -2.84375 2.625 -2.84375 L 2.34375 -2.828125 C 2.300781 -2.828125 2.28125 -2.84375 2.28125 -2.875 L 2.28125 -2.953125 C 2.28125 -3.179688 2.207031 -3.363281 2.0625 -3.5 C 1.925781 -3.632812 1.75 -3.703125 1.53125 -3.703125 C 1.300781 -3.703125 1.117188 -3.632812 0.984375 -3.5 C 0.847656 -3.363281 0.78125 -3.179688 0.78125 -2.953125 L 0.78125 -1.0625 C 0.78125 -0.832031 0.847656 -0.648438 0.984375 -0.515625 C 1.117188 -0.378906 1.300781 -0.3125 1.53125 -0.3125 C 1.75 -0.3125 1.925781 -0.378906 2.0625 -0.515625 C 2.207031 -0.648438 2.28125 -0.832031 2.28125 -1.0625 L 2.28125 -1.140625 C 2.28125 -1.171875 2.300781 -1.1875 2.34375 -1.1875 L 2.625 -1.171875 C 2.664062 -1.171875 2.6875 -1.148438 2.6875 -1.109375 L 2.6875 -1.078125 C 2.6875 -0.734375 2.578125 -0.457031 2.359375 -0.25 C 2.148438 -0.0507812 1.875 0.046875 1.53125 0.046875 Z M 1.53125 0.046875 "/></g></g></g><g fill="#7e6f71" fill-opacity="1"><g transform="translate(6.292794, 13.289411)"><g><path d="M 2.4375 0 C 2.40625 0 2.382812 -0.015625 2.375 -0.046875 L 1.671875 -1.8125 C 1.660156 -1.820312 1.648438 -1.828125 1.640625 -1.828125 L 0.90625 -1.828125 C 0.894531 -1.828125 0.890625 -1.820312 0.890625 -1.8125 L 0.890625 -0.0625 C 0.890625 -0.0195312 0.867188 0 0.828125 0 L 0.53125 0 C 0.488281 0 0.46875 -0.0195312 0.46875 -0.0625 L 0.46875 -3.953125 C 0.46875 -3.992188 0.488281 -4.015625 0.53125 -4.015625 L 1.75 -4.015625 C 1.945312 -4.015625 2.125 -3.96875 2.28125 -3.875 C 2.4375 -3.78125 2.554688 -3.648438 2.640625 -3.484375 C 2.722656 -3.316406 2.765625 -3.125 2.765625 -2.90625 C 2.765625 -2.644531 2.703125 -2.421875 2.578125 -2.234375 C 2.453125 -2.054688 2.28125 -1.9375 2.0625 -1.875 C 2.050781 -1.863281 2.046875 -1.851562 2.046875 -1.84375 L 2.796875 -0.0625 L 2.796875 -0.046875 C 2.796875 -0.015625 2.78125 0 2.75 0 Z M 0.90625 -3.65625 C 0.894531 -3.65625 0.890625 -3.648438 0.890625 -3.640625 L 0.890625 -2.1875 C 0.890625 -2.164062 0.894531 -2.15625 0.90625 -2.15625 L 1.703125 -2.15625 C 1.898438 -2.15625 2.054688 -2.222656 2.171875 -2.359375 C 2.296875 -2.503906 2.359375 -2.6875 2.359375 -2.90625 C 2.359375 -3.132812 2.296875 -3.316406 2.171875 -3.453125 C 2.054688 -3.585938 1.898438 -3.65625 1.703125 -3.65625 Z M 0.90625 -3.65625 "/></g></g></g><g fill="#7e6f71" fill-opacity="1"><g transform="translate(11.916339, 13.289411)"><g><path d="M 1.734375 -4.015625 C 2.046875 -4.015625 2.296875 -3.910156 2.484375 -3.703125 C 2.671875 -3.503906 2.765625 -3.238281 2.765625 -2.90625 C 2.765625 -2.570312 2.671875 -2.300781 2.484375 -2.09375 C 2.296875 -1.894531 2.046875 -1.796875 1.734375 -1.796875 L 0.890625 -1.796875 C 0.867188 -1.796875 0.859375 -1.789062 0.859375 -1.78125 L 0.859375 -0.0625 C 0.859375 -0.0195312 0.835938 0 0.796875 0 L 0.515625 0 C 0.472656 0 0.453125 -0.0195312 0.453125 -0.0625 L 0.453125 -3.96875 C 0.453125 -4 0.472656 -4.015625 0.515625 -4.015625 Z M 1.6875 -2.140625 C 1.882812 -2.140625 2.046875 -2.207031 2.171875 -2.34375 C 2.296875 -2.476562 2.359375 -2.660156 2.359375 -2.890625 C 2.359375 -3.128906 2.296875 -3.316406 2.171875 -3.453125 C 2.046875 -3.597656 1.882812 -3.671875 1.6875 -3.671875 L 0.890625 -3.671875 C 0.867188 -3.671875 0.859375 -3.660156 0.859375 -3.640625 L 0.859375 -2.15625 C 0.859375 -2.144531 0.867188 -2.140625 0.890625 -2.140625 Z M 1.6875 -2.140625 "/></g></g></g><g fill="#7e6f71" fill-opacity="1"><g transform="translate(17.476889, 13.289411)"><g/></g></g><g fill="#7e6f71" fill-opacity="1"><g transform="translate(21.222098, 13.289411)"><g><path d="M 1.4375 0.0625 C 1.113281 0.0625 0.847656 -0.0351562 0.640625 -0.234375 C 0.441406 -0.429688 0.34375 -0.695312 0.34375 -1.03125 L 0.34375 -2.96875 C 0.34375 -3.300781 0.441406 -3.566406 0.640625 -3.765625 C 0.847656 -3.960938 1.113281 -4.0625 1.4375 -4.0625 C 1.769531 -4.0625 2.035156 -3.960938 2.234375 -3.765625 C 2.441406 -3.566406 2.546875 -3.300781 2.546875 -2.96875 L 2.546875 -1.03125 C 2.546875 -0.695312 2.441406 -0.429688 2.234375 -0.234375 C 2.035156 -0.0351562 1.769531 0.0625 1.4375 0.0625 Z M 1.4375 -0.296875 C 1.644531 -0.296875 1.8125 -0.359375 1.9375 -0.484375 C 2.070312 -0.617188 2.140625 -0.796875 2.140625 -1.015625 L 2.140625 -3 C 2.140625 -3.207031 2.070312 -3.375 1.9375 -3.5 C 1.8125 -3.632812 1.644531 -3.703125 1.4375 -3.703125 C 1.238281 -3.703125 1.070312 -3.632812 0.9375 -3.5 C 0.8125 -3.375 0.75 -3.207031 0.75 -3 L 0.75 -1.015625 C 0.75 -0.796875 0.8125 -0.617188 0.9375 -0.484375 C 1.070312 -0.359375 1.238281 -0.296875 1.4375 -0.296875 Z M 1.4375 -0.296875 "/></g></g></g><g fill="#7e6f71" fill-opacity="1"><g transform="translate(26.708207, 13.289411)"><g><path d="M 2.328125 -1.8125 C 2.378906 -1.664062 2.40625 -1.472656 2.40625 -1.234375 C 2.40625 -1.023438 2.382812 -0.859375 2.34375 -0.734375 C 2.289062 -0.484375 2.179688 -0.289062 2.015625 -0.15625 C 1.847656 -0.0195312 1.632812 0.046875 1.375 0.046875 C 1.132812 0.046875 0.929688 -0.015625 0.765625 -0.140625 C 0.597656 -0.265625 0.484375 -0.441406 0.421875 -0.671875 C 0.367188 -0.835938 0.34375 -1.019531 0.34375 -1.21875 L 0.34375 -3.0625 C 0.34375 -3.363281 0.4375 -3.601562 0.625 -3.78125 C 0.8125 -3.96875 1.054688 -4.0625 1.359375 -4.0625 C 1.648438 -4.0625 1.882812 -3.96875 2.0625 -3.78125 C 2.238281 -3.601562 2.328125 -3.367188 2.328125 -3.078125 L 2.328125 -3 C 2.328125 -2.957031 2.304688 -2.9375 2.265625 -2.9375 L 1.984375 -2.9375 C 1.941406 -2.9375 1.921875 -2.957031 1.921875 -3 L 1.921875 -3.0625 C 1.921875 -3.25 1.863281 -3.398438 1.75 -3.515625 C 1.644531 -3.640625 1.515625 -3.703125 1.359375 -3.703125 C 1.179688 -3.703125 1.035156 -3.640625 0.921875 -3.515625 C 0.804688 -3.398438 0.75 -3.238281 0.75 -3.03125 L 0.75 -2.1875 C 0.75 -2.175781 0.75 -2.171875 0.75 -2.171875 C 0.757812 -2.171875 0.769531 -2.171875 0.78125 -2.171875 C 0.914062 -2.390625 1.128906 -2.5 1.421875 -2.5 C 1.648438 -2.5 1.835938 -2.4375 1.984375 -2.3125 C 2.140625 -2.195312 2.253906 -2.03125 2.328125 -1.8125 Z M 1.953125 -0.828125 C 1.984375 -0.953125 2 -1.085938 2 -1.234375 C 2 -1.421875 1.976562 -1.578125 1.9375 -1.703125 C 1.894531 -1.847656 1.828125 -1.957031 1.734375 -2.03125 C 1.640625 -2.113281 1.515625 -2.15625 1.359375 -2.15625 C 1.210938 -2.15625 1.09375 -2.113281 1 -2.03125 C 0.90625 -1.945312 0.835938 -1.832031 0.796875 -1.6875 C 0.765625 -1.5625 0.75 -1.410156 0.75 -1.234375 C 0.75 -1.097656 0.757812 -0.957031 0.78125 -0.8125 C 0.820312 -0.65625 0.890625 -0.53125 0.984375 -0.4375 C 1.085938 -0.351562 1.21875 -0.3125 1.375 -0.3125 C 1.519531 -0.3125 1.640625 -0.351562 1.734375 -0.4375 C 1.835938 -0.53125 1.910156 -0.660156 1.953125 -0.828125 Z M 1.953125 -0.828125 "/></g></g></g><g fill="#7e6f71" fill-opacity="1"><g transform="translate(31.953792, 13.289411)"><g><path d="M 0.21875 0 C 0.195312 0 0.179688 -0.00390625 0.171875 -0.015625 C 0.160156 -0.0234375 0.160156 -0.0390625 0.171875 -0.0625 L 1.328125 -3.96875 C 1.335938 -4 1.359375 -4.015625 1.390625 -4.015625 L 1.671875 -4.015625 C 1.691406 -4.015625 1.703125 -4.007812 1.703125 -4 C 1.710938 -3.988281 1.71875 -3.972656 1.71875 -3.953125 L 0.5625 -0.046875 C 0.550781 -0.015625 0.53125 0 0.5 0 Z M 0.21875 0 "/></g></g></g><g fill="#7e6f71" fill-opacity="1"><g transform="translate(36.655351, 13.289411)"><g><path d="M 0.796875 -0.390625 C 0.785156 -0.367188 0.789062 -0.359375 0.8125 -0.359375 L 2.390625 -0.359375 C 2.421875 -0.359375 2.4375 -0.335938 2.4375 -0.296875 L 2.4375 -0.0625 C 2.4375 -0.0195312 2.421875 0 2.390625 0 L 0.34375 0 C 0.300781 0 0.28125 -0.0195312 0.28125 -0.0625 L 0.28125 -0.3125 C 0.28125 -0.332031 0.289062 -0.359375 0.3125 -0.390625 C 0.65625 -0.847656 1.039062 -1.378906 1.46875 -1.984375 C 1.769531 -2.429688 1.921875 -2.785156 1.921875 -3.046875 C 1.921875 -3.242188 1.863281 -3.398438 1.75 -3.515625 C 1.632812 -3.640625 1.484375 -3.703125 1.296875 -3.703125 C 1.109375 -3.703125 0.957031 -3.640625 0.84375 -3.515625 C 0.738281 -3.398438 0.6875 -3.242188 0.6875 -3.046875 L 0.6875 -2.84375 C 0.6875 -2.8125 0.664062 -2.796875 0.625 -2.796875 L 0.328125 -2.796875 C 0.296875 -2.796875 0.28125 -2.8125 0.28125 -2.84375 L 0.28125 -3.078125 C 0.28125 -3.367188 0.375 -3.601562 0.5625 -3.78125 C 0.757812 -3.96875 1.003906 -4.0625 1.296875 -4.0625 C 1.609375 -4.0625 1.859375 -3.96875 2.046875 -3.78125 C 2.234375 -3.59375 2.328125 -3.347656 2.328125 -3.046875 C 2.328125 -2.710938 2.171875 -2.316406 1.859375 -1.859375 C 1.660156 -1.566406 1.347656 -1.132812 0.921875 -0.5625 Z M 0.796875 -0.390625 "/></g></g></g><g fill="#7e6f71" fill-opacity="1"><g transform="translate(41.941022, 13.289411)"><g><path d="M 0.859375 -4 C 0.878906 -4.007812 0.90625 -4.015625 0.9375 -4.015625 L 1.25 -4.015625 C 1.28125 -4.015625 1.296875 -3.992188 1.296875 -3.953125 L 1.296875 -0.0625 C 1.296875 -0.0195312 1.28125 0 1.25 0 L 0.953125 0 C 0.910156 0 0.890625 -0.0195312 0.890625 -0.0625 L 0.890625 -3.546875 C 0.890625 -3.554688 0.882812 -3.5625 0.875 -3.5625 C 0.875 -3.5625 0.867188 -3.5625 0.859375 -3.5625 L 0.296875 -3.34375 C 0.285156 -3.34375 0.273438 -3.34375 0.265625 -3.34375 C 0.242188 -3.34375 0.226562 -3.359375 0.21875 -3.390625 L 0.1875 -3.59375 L 0.1875 -3.609375 C 0.1875 -3.628906 0.203125 -3.648438 0.234375 -3.671875 Z M 0.859375 -4 "/></g></g></g><g fill="#7e6f71" fill-opacity="1"><g transform="translate(46.276075, 13.289411)"><g><path d="M 1.4375 0.0625 C 1.113281 0.0625 0.847656 -0.0351562 0.640625 -0.234375 C 0.441406 -0.429688 0.34375 -0.695312 0.34375 -1.03125 L 0.34375 -2.96875 C 0.34375 -3.300781 0.441406 -3.566406 0.640625 -3.765625 C 0.847656 -3.960938 1.113281 -4.0625 1.4375 -4.0625 C 1.769531 -4.0625 2.035156 -3.960938 2.234375 -3.765625 C 2.441406 -3.566406 2.546875 -3.300781 2.546875 -2.96875 L 2.546875 -1.03125 C 2.546875 -0.695312 2.441406 -0.429688 2.234375 -0.234375 C 2.035156 -0.0351562 1.769531 0.0625 1.4375 0.0625 Z M 1.4375 -0.296875 C 1.644531 -0.296875 1.8125 -0.359375 1.9375 -0.484375 C 2.070312 -0.617188 2.140625 -0.796875 2.140625 -1.015625 L 2.140625 -3 C 2.140625 -3.207031 2.070312 -3.375 1.9375 -3.5 C 1.8125 -3.632812 1.644531 -3.703125 1.4375 -3.703125 C 1.238281 -3.703125 1.070312 -3.632812 0.9375 -3.5 C 0.8125 -3.375 0.75 -3.207031 0.75 -3 L 0.75 -1.015625 C 0.75 -0.796875 0.8125 -0.617188 0.9375 -0.484375 C 1.070312 -0.359375 1.238281 -0.296875 1.4375 -0.296875 Z M 1.4375 -0.296875 "/></g></g></g><g fill="#7e6f71" fill-opacity="1"><g transform="translate(51.762184, 13.289411)"><g><path d="M 2.21875 -3.34375 C 2.28125 -3.195312 2.3125 -3.015625 2.3125 -2.796875 L 2.3125 -0.953125 C 2.3125 -0.648438 2.21875 -0.40625 2.03125 -0.21875 C 1.84375 -0.0390625 1.597656 0.046875 1.296875 0.046875 C 1.003906 0.046875 0.765625 -0.0390625 0.578125 -0.21875 C 0.398438 -0.40625 0.3125 -0.644531 0.3125 -0.9375 L 0.3125 -1.015625 C 0.3125 -1.054688 0.332031 -1.078125 0.375 -1.078125 L 0.671875 -1.078125 C 0.703125 -1.078125 0.71875 -1.054688 0.71875 -1.015625 L 0.71875 -0.953125 C 0.71875 -0.765625 0.769531 -0.609375 0.875 -0.484375 C 0.988281 -0.367188 1.128906 -0.3125 1.296875 -0.3125 C 1.460938 -0.3125 1.601562 -0.367188 1.71875 -0.484375 C 1.832031 -0.609375 1.890625 -0.773438 1.890625 -0.984375 L 1.890625 -1.8125 C 1.890625 -1.820312 1.882812 -1.828125 1.875 -1.828125 C 1.875 -1.835938 1.875 -1.835938 1.875 -1.828125 C 1.800781 -1.722656 1.707031 -1.644531 1.59375 -1.59375 C 1.476562 -1.539062 1.351562 -1.515625 1.21875 -1.515625 C 0.988281 -1.515625 0.796875 -1.570312 0.640625 -1.6875 C 0.492188 -1.8125 0.390625 -1.984375 0.328125 -2.203125 C 0.265625 -2.347656 0.234375 -2.539062 0.234375 -2.78125 C 0.234375 -2.988281 0.253906 -3.15625 0.296875 -3.28125 C 0.359375 -3.53125 0.472656 -3.722656 0.640625 -3.859375 C 0.804688 -3.992188 1.015625 -4.0625 1.265625 -4.0625 C 1.515625 -4.0625 1.71875 -4 1.875 -3.875 C 2.039062 -3.75 2.15625 -3.570312 2.21875 -3.34375 Z M 1.28125 -1.859375 C 1.425781 -1.859375 1.546875 -1.898438 1.640625 -1.984375 C 1.742188 -2.066406 1.8125 -2.179688 1.84375 -2.328125 C 1.875 -2.429688 1.890625 -2.582031 1.890625 -2.78125 C 1.890625 -2.945312 1.878906 -3.085938 1.859375 -3.203125 C 1.828125 -3.359375 1.757812 -3.476562 1.65625 -3.5625 C 1.5625 -3.65625 1.4375 -3.703125 1.28125 -3.703125 C 1.125 -3.703125 0.992188 -3.65625 0.890625 -3.5625 C 0.796875 -3.476562 0.726562 -3.351562 0.6875 -3.1875 C 0.664062 -3.070312 0.65625 -2.9375 0.65625 -2.78125 C 0.65625 -2.582031 0.671875 -2.425781 0.703125 -2.3125 C 0.742188 -2.164062 0.8125 -2.050781 0.90625 -1.96875 C 1.007812 -1.894531 1.132812 -1.859375 1.28125 -1.859375 Z M 1.28125 -1.859375 "/></g></g></g><g fill="#7e6f71" fill-opacity="1"><g transform="translate(57.002046, 13.289411)"><g><path d="M 2.484375 -1.46875 C 2.515625 -1.46875 2.53125 -1.445312 2.53125 -1.40625 L 2.53125 -1.15625 C 2.53125 -1.113281 2.515625 -1.09375 2.484375 -1.09375 L 2.265625 -1.09375 C 2.242188 -1.09375 2.234375 -1.085938 2.234375 -1.078125 L 2.234375 -0.0625 C 2.234375 -0.0195312 2.21875 0 2.1875 0 L 1.890625 0 C 1.847656 0 1.828125 -0.0195312 1.828125 -0.0625 L 1.828125 -1.078125 C 1.828125 -1.085938 1.820312 -1.09375 1.8125 -1.09375 L 0.265625 -1.09375 C 0.222656 -1.09375 0.203125 -1.113281 0.203125 -1.15625 L 0.203125 -1.375 C 0.203125 -1.40625 0.207031 -1.425781 0.21875 -1.4375 L 1.234375 -3.96875 C 1.242188 -4 1.265625 -4.015625 1.296875 -4.015625 L 1.609375 -4.015625 C 1.628906 -4.015625 1.640625 -4.003906 1.640625 -3.984375 C 1.648438 -3.972656 1.65625 -3.957031 1.65625 -3.9375 L 0.671875 -1.5 C 0.671875 -1.488281 0.671875 -1.476562 0.671875 -1.46875 C 0.679688 -1.46875 0.6875 -1.46875 0.6875 -1.46875 L 1.8125 -1.46875 C 1.820312 -1.46875 1.828125 -1.472656 1.828125 -1.484375 L 1.828125 -2.390625 C 1.828125 -2.429688 1.847656 -2.453125 1.890625 -2.453125 L 2.1875 -2.453125 C 2.21875 -2.453125 2.234375 -2.429688 2.234375 -2.390625 L 2.234375 -1.484375 C 2.234375 -1.472656 2.242188 -1.46875 2.265625 -1.46875 Z M 2.484375 -1.46875 "/></g></g></g><g fill="#7e6f71" fill-opacity="1"><g transform="translate(62.367889, 13.289411)"><g><path d="M 2.328125 -1.859375 C 2.367188 -1.671875 2.390625 -1.460938 2.390625 -1.234375 C 2.390625 -1.035156 2.375 -0.867188 2.34375 -0.734375 C 2.289062 -0.484375 2.175781 -0.289062 2 -0.15625 C 1.832031 -0.0195312 1.617188 0.046875 1.359375 0.046875 C 1.097656 0.046875 0.878906 -0.0195312 0.703125 -0.15625 C 0.535156 -0.289062 0.425781 -0.484375 0.375 -0.734375 C 0.351562 -0.804688 0.34375 -0.878906 0.34375 -0.953125 L 0.34375 -0.96875 C 0.34375 -1 0.359375 -1.015625 0.390625 -1.015625 L 0.6875 -1.015625 C 0.726562 -1.015625 0.75 -1 0.75 -0.96875 L 0.75 -0.9375 L 0.78125 -0.828125 C 0.8125 -0.660156 0.875 -0.53125 0.96875 -0.4375 C 1.070312 -0.351562 1.203125 -0.3125 1.359375 -0.3125 C 1.515625 -0.3125 1.640625 -0.351562 1.734375 -0.4375 C 1.835938 -0.53125 1.910156 -0.660156 1.953125 -0.828125 C 1.972656 -0.929688 1.984375 -1.066406 1.984375 -1.234375 C 1.984375 -1.367188 1.96875 -1.515625 1.9375 -1.671875 C 1.90625 -1.828125 1.835938 -1.941406 1.734375 -2.015625 C 1.640625 -2.097656 1.515625 -2.140625 1.359375 -2.140625 C 1.210938 -2.140625 1.085938 -2.101562 0.984375 -2.03125 C 0.878906 -1.96875 0.804688 -1.875 0.765625 -1.75 L 0.75 -1.71875 C 0.75 -1.695312 0.734375 -1.6875 0.703125 -1.6875 L 0.390625 -1.6875 C 0.359375 -1.6875 0.34375 -1.707031 0.34375 -1.75 L 0.34375 -3.953125 C 0.34375 -3.992188 0.359375 -4.015625 0.390625 -4.015625 L 2.21875 -4.015625 C 2.25 -4.015625 2.265625 -3.992188 2.265625 -3.953125 L 2.265625 -3.71875 C 2.265625 -3.675781 2.25 -3.65625 2.21875 -3.65625 L 0.765625 -3.65625 C 0.753906 -3.65625 0.75 -3.648438 0.75 -3.640625 L 0.75 -2.234375 C 0.75 -2.222656 0.75 -2.21875 0.75 -2.21875 C 0.757812 -2.21875 0.769531 -2.21875 0.78125 -2.21875 C 0.851562 -2.300781 0.945312 -2.367188 1.0625 -2.421875 C 1.175781 -2.472656 1.300781 -2.5 1.4375 -2.5 C 1.664062 -2.5 1.851562 -2.441406 2 -2.328125 C 2.15625 -2.222656 2.265625 -2.066406 2.328125 -1.859375 Z M 2.328125 -1.859375 "/></g></g></g></g></g></g></g><g clip-path="url(#8d19c3b48a)"><path fill="#000000" d="M 182.464844 14.863281 C 182.171875 14.808594 181.835938 14.886719 181.527344 14.75 L 180.042969 14.910156 C 180.386719 14.710938 180.773438 14.539062 181.105469 14.3125 C 181.542969 14.015625 182.390625 13.402344 182.738281 13.046875 C 183.367188 12.410156 183.800781 11.585938 183.714844 10.675781 C 183.574219 9.207031 183.113281 8.175781 183.246094 6.539062 C 183.308594 5.792969 183.757812 5.097656 183.835938 4.410156 C 183.957031 3.355469 183.839844 1.804688 183.234375 0.902344 C 182.644531 0.0273438 181.960938 0.230469 181.113281 0.644531 C 179.203125 1.574219 177.109375 4.257812 175.960938 6.019531 C 173.484375 9.816406 171.769531 14.035156 170.546875 18.386719 C 169.9375 18.351562 170.328125 17.921875 170.3125 17.625 C 170.300781 17.425781 170.101562 17.222656 170.070312 16.917969 C 169.90625 15.449219 170.507812 13.582031 169.417969 12.375 C 169.242188 12.472656 169.417969 12.683594 169.472656 12.792969 C 170.164062 14.25 169.925781 15.515625 169.953125 17.089844 C 169.445312 16.890625 168.996094 17.570312 168.648438 17.390625 C 168.488281 17.308594 167.171875 15.960938 166.984375 15.734375 C 166.539062 15.191406 166.320312 14.457031 165.796875 14.027344 C 165.789062 14.25 165.949219 14.464844 166.054688 14.652344 C 166.597656 15.601562 167.464844 16.550781 168.285156 17.273438 C 168.390625 17.367188 168.605469 17.4375 168.625 17.460938 C 168.722656 17.597656 168.585938 18.050781 168.660156 18.257812 L 169.359375 18.390625 L 169.359375 18.976562 C 167.859375 18.019531 166.625 16.699219 165.261719 15.558594 C 162.6875 13.414062 156.878906 8.804688 153.613281 8.492188 C 151.753906 8.316406 152.695312 10.449219 153.234375 11.351562 C 154.15625 12.90625 155.582031 13.710938 156.46875 15.09375 C 157.742188 17.085938 157.152344 19.019531 159.863281 19.859375 C 160.273438 19.988281 160.707031 20.03125 161.121094 20.144531 L 163.070312 20.273438 L 162.273438 20.605469 C 161.875 20.789062 160.808594 21.714844 160.71875 22.125 C 160.351562 23.75 161.378906 25.265625 162.414062 26.40625 C 163.597656 27.707031 166.957031 29.519531 168.71875 29.691406 C 169.085938 29.730469 170.960938 29.746094 171.132812 29.574219 C 171.230469 28.492188 171.515625 27.425781 171.621094 26.34375 C 171.65625 25.957031 171.710938 25.523438 171.734375 25.148438 C 171.753906 24.839844 171.582031 24.585938 171.617188 24.28125 C 171.792969 24.292969 171.800781 24.460938 171.859375 24.574219 C 172.316406 25.535156 172.597656 26.636719 173.460938 27.347656 C 173.910156 27.445312 173.757812 26.203125 173.703125 25.925781 C 173.582031 25.328125 173.199219 24.835938 172.980469 24.28125 C 172.800781 23.808594 172.828125 23.890625 172.546875 23.421875 C 172.355469 23.105469 172.214844 22.636719 172.097656 22.277344 C 173.566406 23.746094 175.351562 24.828125 177.027344 26.046875 L 177.082031 26.40625 C 176.871094 26.628906 174.046875 24.710938 173.699219 24.40625 C 173.363281 24.371094 173.597656 24.554688 173.699219 24.640625 C 174.550781 25.308594 175.496094 25.980469 176.453125 26.503906 C 176.8125 26.703125 178.007812 27.328125 178.335938 27.351562 C 178.679688 27.378906 180.273438 26.367188 180.632812 26.105469 C 182.707031 24.597656 184.808594 21.765625 185.035156 19.164062 C 185.199219 17.289062 184.539062 15.234375 182.472656 14.871094 Z M 181.4375 16.410156 C 182.382812 16.257812 182.605469 17.042969 181.863281 17.546875 C 181.277344 17.949219 178.757812 18.898438 178.082031 18.871094 C 177.230469 18.839844 177.886719 18.394531 178.226562 18.179688 C 178.722656 17.859375 181.03125 16.476562 181.4375 16.414062 Z M 173.46875 19.585938 L 172.441406 20.15625 C 173.699219 19.972656 175.324219 18.78125 176.539062 18.738281 C 177.066406 18.71875 177.164062 19.039062 177.488281 19.09375 C 177.847656 19.15625 178.296875 19.054688 178.675781 19.09375 C 179.15625 19.144531 179.664062 19.324219 180.15625 19.332031 C 180.195312 19.363281 180.097656 19.480469 180.039062 19.511719 C 178.242188 20.566406 175.933594 20.804688 173.914062 20.636719 C 173.417969 20.597656 172.746094 20.597656 172.277344 20.511719 C 172.1875 20.496094 172.191406 20.203125 171.964844 20.273438 C 172.59375 19.566406 173.535156 18.972656 174.347656 18.457031 C 174.964844 18.066406 175.722656 17.621094 176.371094 17.28125 C 176.519531 17.203125 176.628906 17.054688 176.832031 17.09375 C 176.414062 18.671875 174.757812 18.953125 173.464844 19.585938 Z M 176.957031 17.507812 C 177.464844 16.832031 178.828125 15.671875 179.726562 15.9375 C 179.835938 15.96875 179.917969 16.066406 179.988281 16.148438 C 180.1875 16.535156 179.5 17.160156 179.207031 17.382812 C 178.5625 17.863281 177.28125 18.554688 176.480469 18.386719 C 176.378906 18.292969 176.863281 17.628906 176.957031 17.503906 Z M 180.628906 13.019531 C 178.082031 14.46875 175.644531 16.136719 173.074219 17.542969 C 172.738281 17.726562 172.347656 17.949219 171.96875 18.035156 C 173.535156 16.285156 174.699219 14.1875 176.757812 12.945312 C 177.902344 12.253906 179.222656 11.660156 180.398438 11.015625 C 180.714844 10.867188 181.09375 11.054688 181.289062 11.316406 C 181.808594 12.027344 181.140625 12.5625 180.628906 13.015625 Z M 176.480469 12.378906 C 176.675781 11.792969 177.035156 11.257812 177.433594 10.789062 C 177.71875 10.449219 179.09375 9.054688 179.414062 8.980469 C 180.121094 8.824219 180.402344 9.4375 180.257812 10.058594 C 180.042969 10.992188 177.503906 12.527344 176.480469 12.378906 Z M 181.289062 6.019531 C 181.402344 6.011719 181.589844 6.65625 181.566406 6.769531 C 181.535156 6.925781 180.835938 7.457031 180.699219 7.429688 C 180.152344 7.332031 181.039062 6.117188 181.289062 6.019531 Z M 178.996094 6.816406 C 178.519531 6.167969 180.183594 4.683594 180.613281 5.214844 C 181.085938 5.796875 179.867188 7.519531 178.996094 6.816406 Z M 180.15625 3.59375 C 181.046875 3.289062 180.6875 4.1875 180.34375 4.605469 C 180.050781 4.949219 179.558594 5.230469 179.09375 5.1875 C 179.074219 4.925781 179.210938 4.65625 179.351562 4.441406 C 179.484375 4.234375 179.957031 3.65625 180.15625 3.589844 Z M 179.328125 3.1875 C 179.652344 3.949219 179.050781 5.101562 178.144531 4.953125 C 177.941406 4.753906 178.742188 2.984375 179.328125 3.1875 Z M 178.203125 5.308594 C 178.675781 5.855469 178.296875 6.71875 177.550781 6.605469 C 177.503906 6.109375 177.53125 5.332031 178.203125 5.308594 Z M 178.648438 7.863281 C 178.828125 7.816406 179.035156 7.777344 179.1875 7.925781 C 179.785156 8.523438 178.230469 9.761719 177.777344 10.074219 C 177.640625 10.167969 177.496094 10.28125 177.3125 10.257812 C 177.285156 9.289062 177.585938 8.117188 178.648438 7.863281 Z M 177.136719 7.785156 C 177.492188 7.765625 177.125 8.949219 176.601562 8.726562 C 176.558594 8.308594 176.859375 8.039062 177.136719 7.785156 Z M 168.761719 20.863281 C 167.742188 21.191406 166.65625 21.53125 165.582031 21.253906 C 165.3125 21.1875 164.699219 20.972656 164.726562 20.628906 C 165.894531 20.746094 167.335938 20.476562 168.46875 20.628906 C 168.5 20.636719 168.8125 20.75 168.765625 20.863281 Z M 161.402344 14.148438 C 161.523438 14.035156 162.578125 14.601562 162.789062 14.71875 C 163.574219 15.148438 164.503906 15.773438 165.242188 16.292969 C 166.363281 17.085938 167.472656 17.980469 168.410156 18.980469 C 168.183594 19.003906 167.992188 18.902344 167.785156 18.835938 C 166.527344 18.410156 162.625 16.296875 161.828125 15.316406 C 161.574219 15.003906 161.230469 14.539062 161.402344 14.148438 Z M 159.738281 13.085938 C 159.816406 13.011719 160.761719 13.457031 160.6875 13.734375 C 160.617188 13.996094 160.421875 13.828125 160.292969 13.773438 C 159.984375 13.644531 159.671875 13.488281 159.734375 13.085938 Z M 155.703125 10.730469 C 156.1875 10.75 156.523438 11.070312 157.007812 11.199219 C 156.671875 10.832031 156.046875 10.570312 156.058594 10.019531 C 156.558594 10.074219 157.496094 10.621094 157.664062 11.078125 C 157.792969 11.441406 157.179688 11.246094 157.007812 11.199219 C 157.101562 11.300781 157.164062 11.472656 157.304688 11.550781 C 157.421875 11.613281 157.210938 11.785156 157.183594 11.789062 C 156.925781 11.835938 155.378906 11.273438 155.703125 10.726562 Z M 156.769531 13.203125 C 157.273438 13.277344 157.742188 13.632812 157.839844 14.148438 C 157.429688 14.394531 156.617188 13.363281 156.769531 13.203125 Z M 158.074219 13.085938 C 157.4375 13.164062 156.824219 12.734375 156.535156 12.203125 C 157.019531 11.628906 158.3125 12.339844 158.074219 13.085938 Z M 158.726562 12.378906 C 158.425781 12.4375 157.886719 11.773438 157.957031 11.433594 C 158.367188 11.226562 159.320312 12.261719 158.726562 12.378906 Z M 159.082031 13.671875 C 159.230469 13.476562 159.304688 13.585938 159.464844 13.648438 C 160.175781 13.9375 161.25 14.464844 161.28125 15.324219 C 160.664062 15.296875 158.558594 14.523438 159.082031 13.671875 Z M 159.566406 16.027344 C 159.324219 15.695312 158.992188 14.882812 159.652344 14.988281 C 160.363281 15.105469 161.921875 15.839844 162.46875 16.324219 C 162.554688 16.398438 162.949219 16.757812 162.824219 16.855469 C 161.820312 17.121094 160.199219 16.90625 159.5625 16.023438 Z M 159.949219 18.125 C 159.667969 17.515625 160.015625 17.15625 160.625 17.085938 C 161.710938 17.230469 162.851562 17.257812 163.921875 17.476562 C 165.542969 17.808594 166.96875 18.84375 168.523438 19.332031 C 168.550781 19.539062 168.253906 19.445312 168.113281 19.449219 C 166.75 19.507812 165.097656 19.210938 163.71875 19.09375 C 162.703125 19.011719 160.460938 19.222656 159.949219 18.125 Z M 163.261719 21.121094 C 164.09375 20.703125 164.96875 21.371094 165.792969 21.457031 C 165.824219 21.621094 165.753906 21.734375 165.59375 21.785156 C 165.265625 21.898438 163.929688 22.089844 163.617188 22.023438 C 163.191406 21.925781 162.769531 21.371094 163.261719 21.125 Z M 163.148438 22.542969 C 163.457031 22.390625 165.757812 21.921875 165.914062 22.046875 C 165.945312 22.074219 165.5625 22.675781 165.46875 22.753906 C 165.273438 22.925781 163.804688 23.683594 163.542969 23.757812 C 162.34375 24.105469 162.128906 23.035156 163.148438 22.542969 Z M 164.070312 25.226562 C 163.3125 25.359375 162.949219 24.898438 163.289062 24.21875 L 165.433594 23.109375 C 165.132812 23.617188 164.707031 25.117188 164.070312 25.226562 Z M 164.632812 25.660156 C 164.726562 24.507812 165.699219 25.003906 166.507812 24.757812 C 166.578125 24.824219 166.074219 26.367188 165.917969 26.472656 C 165.480469 26.753906 164.597656 26.121094 164.632812 25.664062 Z M 167.691406 27.050781 C 167.597656 27.394531 166.980469 27.410156 166.699219 27.238281 C 166.125 26.890625 166.773438 24.257812 167.691406 24.167969 Z M 165.5625 24.273438 C 165.46875 23.824219 165.832031 23.492188 165.96875 23.101562 C 166.242188 22.351562 166.070312 21.882812 166.914062 21.566406 C 167.347656 21.402344 168.402344 21.089844 168.84375 21.007812 C 169.054688 20.96875 169.261719 20.976562 169.46875 20.984375 C 169.632812 21.144531 168.980469 22.019531 168.855469 22.199219 C 168.144531 23.242188 166.996094 24.796875 165.558594 24.273438 Z M 169.832031 23.167969 C 169.78125 23.691406 169.519531 24.269531 169.472656 24.8125 C 169.425781 25.34375 169.613281 27.160156 169.332031 27.4375 C 167.910156 28.179688 167.984375 25.800781 168.046875 24.929688 C 168.128906 23.792969 168.796875 22.757812 169.378906 21.773438 C 169.488281 21.582031 169.578125 21.261719 169.832031 21.339844 C 169.789062 21.929688 169.890625 22.585938 169.832031 23.167969 Z M 170.660156 27.9375 C 170.136719 28.015625 169.988281 27.46875 169.945312 27.054688 C 169.863281 26.199219 170.054688 25.382812 170.074219 24.582031 C 170.097656 23.582031 170.042969 22.574219 170.070312 21.574219 C 170.566406 21.816406 170.601562 22.542969 170.664062 23.042969 C 170.777344 23.945312 170.683594 24.660156 170.65625 25.519531 C 170.632812 26.324219 170.679688 27.132812 170.65625 27.9375 Z M 171.136719 28.054688 C 170.714844 27.902344 171.011719 27.570312 171.023438 27.289062 C 171.066406 26.03125 170.917969 24.300781 170.792969 23.035156 C 170.769531 22.824219 170.78125 22.609375 170.78125 22.398438 L 171.230469 23.308594 C 171.808594 24.855469 171.351562 26.488281 171.136719 28.054688 Z M 171.136719 18.390625 L 172.417969 15.125 C 173.171875 13.621094 173.882812 12.113281 174.9375 10.789062 C 175.179688 10.484375 176.191406 9.113281 176.578125 9.574219 C 176.667969 9.675781 176.726562 10.242188 176.710938 10.421875 C 176.601562 11.613281 174.90625 13.917969 174.15625 14.960938 C 173.304688 16.15625 172.363281 17.578125 171.136719 18.386719 Z M 178.492188 24.347656 C 178.078125 24.210938 177.105469 23.296875 176.527344 23 C 175.605469 22.53125 174.484375 22.246094 173.511719 21.863281 C 173.074219 21.691406 172.53125 21.277344 172.089844 21.21875 C 173.28125 22.320312 174.914062 22.886719 176.328125 23.671875 C 176.867188 23.972656 178.460938 24.730469 178.085938 25.460938 C 177.820312 25.976562 177.4375 25.742188 177.03125 25.566406 C 175.949219 25.089844 173.070312 23.105469 172.324219 22.21875 C 172.203125 22.074219 171.769531 21.519531 171.734375 21.394531 C 171.660156 21.148438 171.925781 21.195312 172.089844 21.21875 C 171.960938 21.101562 171.699219 20.960938 171.734375 20.804688 L 172.148438 20.617188 C 173.664062 20.949219 175.167969 21.253906 176.726562 21.269531 L 179.507812 23.109375 C 180.054688 23.988281 179.488281 24.679688 178.496094 24.347656 Z M 180.128906 22.84375 C 179.375 22.683594 178.097656 21.421875 177.328125 21.085938 L 177.3125 20.753906 C 177.894531 20.617188 178.386719 20.285156 179.007812 20.417969 C 179.285156 20.476562 180.730469 21.25 180.933594 21.453125 C 181.597656 22.101562 181.152344 23.066406 180.128906 22.84375 Z M 181.554688 21.199219 C 181.277344 21.167969 179.335938 20.273438 179.332031 20.101562 C 179.835938 19.710938 180.691406 19.546875 181.320312 19.484375 C 181.765625 19.4375 182.425781 19.292969 182.625 19.777344 C 182.941406 20.527344 182.339844 21.289062 181.554688 21.199219 Z M 183.191406 18.628906 C 183.148438 18.707031 182.761719 18.976562 182.714844 18.976562 L 179.570312 18.976562 C 179.515625 18.699219 179.597656 18.792969 179.71875 18.71875 C 180.164062 18.460938 182.039062 17.675781 182.476562 17.675781 C 182.980469 17.675781 183.453125 18.128906 183.191406 18.628906 Z M 183.191406 18.628906 " fill-opacity="1" fill-rule="nonzero"/></g></svg>