<svg xmlns="http://www.w3.org/2000/svg" xmlns:xlink="http://www.w3.org/1999/xlink" width="277" zoomAndPan="magnify" viewBox="0 0 207.75 54" height="72" preserveAspectRatio="xMidYMid meet" version="1.0"><defs><g/><clipPath id="c9b3d70906"><path d="M 13.25 2.847656 L 118.683594 2.847656 L 118.683594 34 L 13.25 34 Z M 13.25 2.847656 " clip-rule="nonzero"/></clipPath><clipPath id="7df4c24d51"><path d="M 0.00390625 0.257812 L 121.589844 0.257812 L 121.589844 18 L 0.00390625 18 Z M 0.00390625 0.257812 " clip-rule="nonzero"/></clipPath><clipPath id="55dec076c8"><path d="M 22 0.257812 L 31 0.257812 L 31 14 L 22 14 Z M 22 0.257812 " clip-rule="nonzero"/></clipPath><clipPath id="573da8bed6"><path d="M 52 0.257812 L 56 0.257812 L 56 14 L 52 14 Z M 52 0.257812 " clip-rule="nonzero"/></clipPath><clipPath id="8b80f9e6ea"><path d="M 87 0.257812 L 97 0.257812 L 97 14 L 87 14 Z M 87 0.257812 " clip-rule="nonzero"/></clipPath><clipPath id="4bb03134d1"><rect x="0" width="122" y="0" height="18"/></clipPath><clipPath id="25e47e6aa5"><path d="M 20 0.28125 L 22 0.28125 L 22 5 L 20 5 Z M 20 0.28125 " clip-rule="nonzero"/></clipPath><clipPath id="5a87afad0a"><rect x="0" width="47" y="0" height="11"/></clipPath><clipPath id="f114c16353"><rect x="0" width="122" y="0" height="35"/></clipPath><clipPath id="7b1e028552"><path d="M 138 17 L 143 17 L 143 21.355469 L 138 21.355469 Z M 138 17 " clip-rule="nonzero"/></clipPath></defs><g transform="matrix(1, 0, 0, 1, 43, 16)"><g clip-path="url(#f114c16353)"><g clip-path="url(#c9b3d70906)"><path fill="#ebe9e8" d="M 114.511719 15.65625 C 113.0625 15.839844 110.757812 16.589844 111.828125 21.574219 C 112.820312 26.1875 112.105469 27.734375 110.789062 28.65625 C 80.664062 39.59375 63.398438 30.050781 48.144531 21.621094 C 44.457031 19.582031 40.871094 17.597656 37.265625 16.035156 C 37.925781 15.234375 38.570312 14.367188 39.191406 13.445312 C 42.605469 8.375 44.214844 3.203125 44.230469 3.152344 C 44.261719 3.046875 44.203125 2.933594 44.097656 2.902344 C 43.992188 2.867188 43.878906 2.929688 43.84375 3.035156 C 43.828125 3.085938 42.234375 8.210938 38.851562 13.230469 C 38.269531 14.09375 37.609375 14.988281 36.871094 15.871094 C 33.09375 14.269531 29.292969 13.144531 25.339844 12.921875 C 19.621094 12.601562 15.480469 13.765625 13.980469 16.113281 C 13.285156 17.203125 13.253906 18.457031 13.890625 19.640625 C 14.878906 21.484375 17.753906 23.484375 22.863281 23.578125 C 26.296875 23.636719 29.558594 22.597656 32.5625 20.484375 C 34.113281 19.390625 35.59375 18.011719 36.996094 16.363281 C 40.621094 17.925781 44.234375 19.925781 47.949219 21.976562 C 55.394531 26.089844 63.832031 30.753906 74.085938 32.820312 C 77.789062 33.566406 81.554688 33.941406 85.414062 33.941406 C 93.796875 33.941406 102.601562 32.175781 112.0625 28.617188 C 112.082031 28.609375 112.101562 28.597656 112.121094 28.582031 C 114.492188 27.632812 117.792969 25.488281 118.234375 20.835938 C 118.625 16.710938 116.097656 15.457031 114.515625 15.65625 Z M 23.148438 23.171875 C 23.054688 23.171875 22.960938 23.171875 22.871094 23.167969 C 17.9375 23.082031 15.179688 21.1875 14.246094 19.449219 C 13.679688 18.398438 13.707031 17.289062 14.320312 16.328125 C 14.933594 15.363281 17.015625 13.265625 23.449219 13.265625 C 24.03125 13.265625 24.65625 13.285156 25.316406 13.320312 C 29.171875 13.535156 32.890625 14.628906 36.597656 16.191406 C 33.464844 19.832031 28.996094 23.171875 23.144531 23.171875 Z M 23.148438 23.171875 " fill-opacity="1" fill-rule="nonzero"/></g><g clip-path="url(#7df4c24d51)"><g transform="matrix(1, 0, 0, 1, -0.000000000000007105, -0.000000000000014211)"><g clip-path="url(#4bb03134d1)"><g fill="#ebe9e8" fill-opacity="1"><g transform="translate(0.724742, 13.627756)"><g><path d="M 6.78125 0.15625 C 5.570312 0.15625 4.523438 -0.078125 3.640625 -0.546875 C 2.753906 -1.015625 2.066406 -1.675781 1.578125 -2.53125 C 1.085938 -3.394531 0.84375 -4.398438 0.84375 -5.546875 C 0.84375 -6.304688 0.984375 -7.019531 1.265625 -7.6875 C 1.554688 -8.351562 1.957031 -8.941406 2.46875 -9.453125 C 2.988281 -9.972656 3.613281 -10.378906 4.34375 -10.671875 C 5.070312 -10.960938 5.878906 -11.109375 6.765625 -11.109375 C 7.085938 -11.109375 7.460938 -11.082031 7.890625 -11.03125 C 8.316406 -10.976562 8.734375 -10.894531 9.140625 -10.78125 C 9.554688 -10.675781 9.898438 -10.53125 10.171875 -10.34375 L 10.234375 -8.265625 L 10.046875 -8.21875 C 9.835938 -8.757812 9.523438 -9.222656 9.109375 -9.609375 C 8.703125 -9.992188 8.242188 -10.289062 7.734375 -10.5 C 7.222656 -10.707031 6.703125 -10.8125 6.171875 -10.8125 C 5.492188 -10.8125 4.875 -10.65625 4.3125 -10.34375 C 3.757812 -10.039062 3.320312 -9.578125 3 -8.953125 C 2.675781 -8.328125 2.507812 -7.539062 2.5 -6.59375 C 2.488281 -5.84375 2.585938 -5.09375 2.796875 -4.34375 C 3.015625 -3.59375 3.332031 -2.90625 3.75 -2.28125 C 4.164062 -1.664062 4.671875 -1.164062 5.265625 -0.78125 C 5.859375 -0.40625 6.535156 -0.21875 7.296875 -0.21875 C 7.785156 -0.21875 8.238281 -0.316406 8.65625 -0.515625 C 9.070312 -0.722656 9.378906 -1.023438 9.578125 -1.421875 L 9.578125 -2.84375 C 9.578125 -3.457031 9.523438 -3.894531 9.421875 -4.15625 C 9.316406 -4.425781 9.09375 -4.609375 8.75 -4.703125 L 8.75 -4.921875 L 11.1875 -4.921875 L 11.1875 -2.03125 C 10.800781 -1.507812 10.34375 -1.085938 9.8125 -0.765625 C 9.289062 -0.453125 8.765625 -0.21875 8.234375 -0.0625 C 7.703125 0.0820312 7.21875 0.15625 6.78125 0.15625 Z M 6.78125 0.15625 "/></g></g></g><g fill="#ebe9e8" fill-opacity="1"><g transform="translate(13.046844, 13.627756)"><g><path d="M 6.4375 0 C 6.019531 0 5.8125 -0.207031 5.8125 -0.625 L 5.8125 -3.21875 C 5.664062 -2.613281 5.445312 -2.050781 5.15625 -1.53125 C 4.863281 -1.019531 4.5 -0.609375 4.0625 -0.296875 C 3.632812 0.00390625 3.148438 0.15625 2.609375 0.15625 C 2.035156 0.15625 1.535156 -0.0195312 1.109375 -0.375 C 0.679688 -0.726562 0.46875 -1.238281 0.46875 -1.90625 C 0.46875 -2.445312 0.632812 -2.882812 0.96875 -3.21875 C 1.300781 -3.5625 1.738281 -3.847656 2.28125 -4.078125 C 2.820312 -4.316406 3.421875 -4.523438 4.078125 -4.703125 L 5.8125 -5.203125 C 5.800781 -5.972656 5.601562 -6.523438 5.21875 -6.859375 C 4.84375 -7.191406 4.359375 -7.359375 3.765625 -7.359375 C 3.328125 -7.359375 2.894531 -7.253906 2.46875 -7.046875 C 2.039062 -6.847656 1.625 -6.503906 1.21875 -6.015625 L 1.0625 -6.15625 C 1.507812 -6.707031 2.03125 -7.144531 2.625 -7.46875 C 3.21875 -7.800781 3.875 -7.96875 4.59375 -7.96875 C 5.539062 -7.96875 6.242188 -7.71875 6.703125 -7.21875 C 7.160156 -6.71875 7.390625 -5.988281 7.390625 -5.03125 L 7.390625 -2 C 7.390625 -1.425781 7.425781 -1.003906 7.5 -0.734375 C 7.582031 -0.472656 7.753906 -0.300781 8.015625 -0.21875 L 8.015625 0 Z M 1.9375 -2.453125 C 1.9375 -1.941406 2.085938 -1.566406 2.390625 -1.328125 C 2.703125 -1.097656 3.035156 -0.984375 3.390625 -0.984375 C 3.785156 -0.984375 4.128906 -1.101562 4.421875 -1.34375 C 4.722656 -1.582031 4.972656 -1.882812 5.171875 -2.25 C 5.378906 -2.625 5.535156 -3.015625 5.640625 -3.421875 C 5.753906 -3.835938 5.8125 -4.222656 5.8125 -4.578125 L 5.8125 -4.984375 L 4.140625 -4.5 C 3.941406 -4.445312 3.71875 -4.367188 3.46875 -4.265625 C 3.226562 -4.171875 2.988281 -4.039062 2.75 -3.875 C 2.519531 -3.71875 2.328125 -3.519531 2.171875 -3.28125 C 2.015625 -3.050781 1.9375 -2.773438 1.9375 -2.453125 Z M 1.9375 -2.453125 "/></g></g></g><g clip-path="url(#55dec076c8)"><g fill="#ebe9e8" fill-opacity="1"><g transform="translate(21.848399, 13.627756)"><g><path d="M 4.5625 0.140625 C 3.988281 0.140625 3.460938 0.0273438 2.984375 -0.1875 C 2.515625 -0.414062 2.132812 -0.691406 1.84375 -1.015625 L 1.1875 0 L 1.015625 0 L 1.015625 -10.328125 C 1.015625 -10.785156 0.957031 -11.085938 0.84375 -11.234375 C 0.738281 -11.378906 0.585938 -11.492188 0.390625 -11.578125 L 0.390625 -11.8125 L 2.46875 -12.71875 L 2.625 -12.59375 L 2.625 -7.046875 C 3.019531 -7.296875 3.441406 -7.507812 3.890625 -7.6875 C 4.335938 -7.875 4.785156 -7.96875 5.234375 -7.96875 C 5.972656 -7.96875 6.609375 -7.785156 7.140625 -7.421875 C 7.679688 -7.066406 8.09375 -6.597656 8.375 -6.015625 C 8.664062 -5.441406 8.8125 -4.832031 8.8125 -4.1875 C 8.8125 -3.382812 8.640625 -2.65625 8.296875 -2 C 7.953125 -1.34375 7.457031 -0.820312 6.8125 -0.4375 C 6.175781 -0.0507812 5.425781 0.140625 4.5625 0.140625 Z M 2.625 -2.765625 C 2.625 -2.460938 2.695312 -2.160156 2.84375 -1.859375 C 3 -1.554688 3.195312 -1.273438 3.4375 -1.015625 C 3.6875 -0.765625 3.960938 -0.5625 4.265625 -0.40625 C 4.578125 -0.257812 4.878906 -0.1875 5.171875 -0.1875 C 5.722656 -0.1875 6.148438 -0.316406 6.453125 -0.578125 C 6.765625 -0.847656 6.976562 -1.195312 7.09375 -1.625 C 7.21875 -2.0625 7.28125 -2.515625 7.28125 -2.984375 C 7.28125 -3.265625 7.25 -3.59375 7.1875 -3.96875 C 7.132812 -4.351562 7.039062 -4.738281 6.90625 -5.125 C 6.769531 -5.519531 6.582031 -5.882812 6.34375 -6.21875 C 6.113281 -6.5625 5.828125 -6.832031 5.484375 -7.03125 C 5.148438 -7.238281 4.75 -7.34375 4.28125 -7.34375 C 3.976562 -7.34375 3.691406 -7.289062 3.421875 -7.1875 C 3.148438 -7.09375 2.882812 -6.960938 2.625 -6.796875 Z M 2.625 -2.765625 "/></g></g></g></g><g fill="#ebe9e8" fill-opacity="1"><g transform="translate(31.781555, 13.627756)"><g><path d="M 0.4375 0 L 0.4375 -0.21875 C 0.695312 -0.300781 0.863281 -0.472656 0.9375 -0.734375 C 1.019531 -1.003906 1.0625 -1.425781 1.0625 -2 L 1.0625 -5.609375 C 1.0625 -6.066406 1.003906 -6.367188 0.890625 -6.515625 C 0.785156 -6.671875 0.632812 -6.789062 0.4375 -6.875 L 0.4375 -7.09375 L 2.515625 -8 L 2.671875 -7.875 L 2.671875 -5.96875 C 2.910156 -6.539062 3.289062 -7.003906 3.8125 -7.359375 C 4.113281 -7.566406 4.414062 -7.71875 4.71875 -7.8125 C 5.03125 -7.914062 5.375 -7.96875 5.75 -7.96875 C 6.019531 -7.96875 6.253906 -7.929688 6.453125 -7.859375 C 6.660156 -7.785156 6.765625 -7.664062 6.765625 -7.5 C 6.765625 -7.382812 6.722656 -7.242188 6.640625 -7.078125 C 6.554688 -6.921875 6.4375 -6.78125 6.28125 -6.65625 C 6.125 -6.53125 5.925781 -6.46875 5.6875 -6.46875 C 5.46875 -6.46875 5.195312 -6.507812 4.875 -6.59375 C 4.5625 -6.675781 4.148438 -6.796875 3.640625 -6.953125 C 3.441406 -6.785156 3.234375 -6.535156 3.015625 -6.203125 C 2.804688 -5.878906 2.691406 -5.519531 2.671875 -5.125 L 2.671875 -2 C 2.671875 -1.425781 2.707031 -1.003906 2.78125 -0.734375 C 2.863281 -0.472656 3.035156 -0.300781 3.296875 -0.21875 L 3.296875 0 Z M 0.4375 0 "/></g></g></g><g fill="#ebe9e8" fill-opacity="1"><g transform="translate(39.341485, 13.627756)"><g><path d="M 0.4375 0 L 0.4375 -0.21875 C 0.695312 -0.300781 0.863281 -0.472656 0.9375 -0.734375 C 1.019531 -1.003906 1.0625 -1.425781 1.0625 -2 L 1.0625 -5.609375 C 1.0625 -6.066406 1.003906 -6.367188 0.890625 -6.515625 C 0.785156 -6.671875 0.632812 -6.789062 0.4375 -6.875 L 0.4375 -7.09375 L 2.515625 -8 L 2.671875 -7.875 L 2.671875 -2 C 2.671875 -1.425781 2.707031 -1.003906 2.78125 -0.734375 C 2.863281 -0.472656 3.035156 -0.300781 3.296875 -0.21875 L 3.296875 0 Z M 0.703125 -9.609375 C 0.703125 -9.910156 0.804688 -10.164062 1.015625 -10.375 C 1.234375 -10.582031 1.488281 -10.6875 1.78125 -10.6875 C 2.09375 -10.6875 2.347656 -10.582031 2.546875 -10.375 C 2.742188 -10.164062 2.84375 -9.910156 2.84375 -9.609375 C 2.84375 -9.304688 2.738281 -9.050781 2.53125 -8.84375 C 2.332031 -8.632812 2.082031 -8.53125 1.78125 -8.53125 C 1.488281 -8.53125 1.234375 -8.632812 1.015625 -8.84375 C 0.804688 -9.050781 0.703125 -9.304688 0.703125 -9.609375 Z M 0.703125 -9.609375 "/></g></g></g><g fill="#ebe9e8" fill-opacity="1"><g transform="translate(43.585194, 13.627756)"><g><path d="M 4.21875 0.15625 C 3.769531 0.15625 3.328125 0.0742188 2.890625 -0.078125 C 2.460938 -0.234375 2.0625 -0.46875 1.6875 -0.78125 C 1.320312 -1.09375 1.03125 -1.484375 0.8125 -1.953125 C 0.59375 -2.429688 0.484375 -2.988281 0.484375 -3.625 C 0.484375 -4.300781 0.597656 -4.90625 0.828125 -5.4375 C 1.066406 -5.96875 1.382812 -6.421875 1.78125 -6.796875 C 2.1875 -7.179688 2.628906 -7.472656 3.109375 -7.671875 C 3.597656 -7.867188 4.101562 -7.96875 4.625 -7.96875 C 5.332031 -7.96875 5.925781 -7.828125 6.40625 -7.546875 C 6.894531 -7.265625 7.257812 -6.90625 7.5 -6.46875 C 7.75 -6.039062 7.875 -5.597656 7.875 -5.140625 L 1.921875 -5.140625 C 1.910156 -5.054688 1.898438 -4.972656 1.890625 -4.890625 C 1.890625 -4.804688 1.890625 -4.722656 1.890625 -4.640625 C 1.890625 -3.953125 2.019531 -3.34375 2.28125 -2.8125 C 2.550781 -2.28125 2.929688 -1.863281 3.421875 -1.5625 C 3.910156 -1.257812 4.484375 -1.109375 5.140625 -1.109375 C 5.722656 -1.109375 6.238281 -1.222656 6.6875 -1.453125 C 7.144531 -1.691406 7.535156 -1.992188 7.859375 -2.359375 L 8 -2.203125 C 7.757812 -1.835938 7.460938 -1.472656 7.109375 -1.109375 C 6.753906 -0.742188 6.332031 -0.441406 5.84375 -0.203125 C 5.363281 0.0351562 4.820312 0.15625 4.21875 0.15625 Z M 1.9375 -5.359375 L 6.28125 -5.359375 C 6.21875 -5.785156 6.082031 -6.175781 5.875 -6.53125 C 5.675781 -6.882812 5.425781 -7.164062 5.125 -7.375 C 4.832031 -7.582031 4.503906 -7.6875 4.140625 -7.6875 C 3.691406 -7.695312 3.316406 -7.59375 3.015625 -7.375 C 2.710938 -7.15625 2.472656 -6.863281 2.296875 -6.5 C 2.117188 -6.144531 2 -5.765625 1.9375 -5.359375 Z M 1.9375 -5.359375 "/></g></g></g><g clip-path="url(#573da8bed6)"><g fill="#ebe9e8" fill-opacity="1"><g transform="translate(52.449614, 13.627756)"><g><path d="M 0.46875 0 L 0.46875 -0.21875 C 0.726562 -0.300781 0.894531 -0.472656 0.96875 -0.734375 C 1.050781 -1.003906 1.09375 -1.425781 1.09375 -2 L 1.09375 -10.328125 C 1.09375 -10.785156 1.035156 -11.085938 0.921875 -11.234375 C 0.816406 -11.378906 0.664062 -11.492188 0.46875 -11.578125 L 0.46875 -11.8125 L 2.546875 -12.71875 L 2.703125 -12.59375 L 2.703125 -2 C 2.703125 -1.425781 2.738281 -1.003906 2.8125 -0.734375 C 2.894531 -0.472656 3.066406 -0.300781 3.328125 -0.21875 L 3.328125 0 Z M 0.46875 0 "/></g></g></g></g><g fill="#ebe9e8" fill-opacity="1"><g transform="translate(56.787616, 13.627756)"><g><path d="M 4.21875 0.15625 C 3.769531 0.15625 3.328125 0.0742188 2.890625 -0.078125 C 2.460938 -0.234375 2.0625 -0.46875 1.6875 -0.78125 C 1.320312 -1.09375 1.03125 -1.484375 0.8125 -1.953125 C 0.59375 -2.429688 0.484375 -2.988281 0.484375 -3.625 C 0.484375 -4.300781 0.597656 -4.90625 0.828125 -5.4375 C 1.066406 -5.96875 1.382812 -6.421875 1.78125 -6.796875 C 2.1875 -7.179688 2.628906 -7.472656 3.109375 -7.671875 C 3.597656 -7.867188 4.101562 -7.96875 4.625 -7.96875 C 5.332031 -7.96875 5.925781 -7.828125 6.40625 -7.546875 C 6.894531 -7.265625 7.257812 -6.90625 7.5 -6.46875 C 7.75 -6.039062 7.875 -5.597656 7.875 -5.140625 L 1.921875 -5.140625 C 1.910156 -5.054688 1.898438 -4.972656 1.890625 -4.890625 C 1.890625 -4.804688 1.890625 -4.722656 1.890625 -4.640625 C 1.890625 -3.953125 2.019531 -3.34375 2.28125 -2.8125 C 2.550781 -2.28125 2.929688 -1.863281 3.421875 -1.5625 C 3.910156 -1.257812 4.484375 -1.109375 5.140625 -1.109375 C 5.722656 -1.109375 6.238281 -1.222656 6.6875 -1.453125 C 7.144531 -1.691406 7.535156 -1.992188 7.859375 -2.359375 L 8 -2.203125 C 7.757812 -1.835938 7.460938 -1.472656 7.109375 -1.109375 C 6.753906 -0.742188 6.332031 -0.441406 5.84375 -0.203125 C 5.363281 0.0351562 4.820312 0.15625 4.21875 0.15625 Z M 1.9375 -5.359375 L 6.28125 -5.359375 C 6.21875 -5.785156 6.082031 -6.175781 5.875 -6.53125 C 5.675781 -6.882812 5.425781 -7.164062 5.125 -7.375 C 4.832031 -7.582031 4.503906 -7.6875 4.140625 -7.6875 C 3.691406 -7.695312 3.316406 -7.59375 3.015625 -7.375 C 2.710938 -7.15625 2.472656 -6.863281 2.296875 -6.5 C 2.117188 -6.144531 2 -5.765625 1.9375 -5.359375 Z M 1.9375 -5.359375 "/></g></g></g><g fill="#ebe9e8" fill-opacity="1"><g transform="translate(65.652036, 13.627756)"><g/></g></g><g fill="#ebe9e8" fill-opacity="1"><g transform="translate(69.267068, 13.627756)"><g><path d="M 2.953125 0 L 2.953125 -0.21875 C 3.210938 -0.300781 3.378906 -0.472656 3.453125 -0.734375 C 3.535156 -1.003906 3.578125 -1.425781 3.578125 -2 L 3.578125 -10.71875 L 3.09375 -10.71875 C 2.394531 -10.71875 1.84375 -10.597656 1.4375 -10.359375 C 1.039062 -10.128906 0.695312 -9.695312 0.40625 -9.0625 L 0.21875 -9.09375 L 0.3125 -11 L 8.5 -11 L 8.59375 -9.09375 L 8.40625 -9.0625 C 8.113281 -9.695312 7.769531 -10.128906 7.375 -10.359375 C 6.976562 -10.597656 6.425781 -10.71875 5.71875 -10.71875 L 5.265625 -10.71875 L 5.265625 -2 C 5.265625 -1.425781 5.300781 -1.003906 5.375 -0.734375 C 5.457031 -0.472656 5.628906 -0.300781 5.890625 -0.21875 L 5.890625 0 Z M 2.953125 0 "/></g></g></g><g fill="#ebe9e8" fill-opacity="1"><g transform="translate(78.540131, 13.627756)"><g><path d="M 6.4375 0 C 6.019531 0 5.8125 -0.207031 5.8125 -0.625 L 5.8125 -3.21875 C 5.664062 -2.613281 5.445312 -2.050781 5.15625 -1.53125 C 4.863281 -1.019531 4.5 -0.609375 4.0625 -0.296875 C 3.632812 0.00390625 3.148438 0.15625 2.609375 0.15625 C 2.035156 0.15625 1.535156 -0.0195312 1.109375 -0.375 C 0.679688 -0.726562 0.46875 -1.238281 0.46875 -1.90625 C 0.46875 -2.445312 0.632812 -2.882812 0.96875 -3.21875 C 1.300781 -3.5625 1.738281 -3.847656 2.28125 -4.078125 C 2.820312 -4.316406 3.421875 -4.523438 4.078125 -4.703125 L 5.8125 -5.203125 C 5.800781 -5.972656 5.601562 -6.523438 5.21875 -6.859375 C 4.84375 -7.191406 4.359375 -7.359375 3.765625 -7.359375 C 3.328125 -7.359375 2.894531 -7.253906 2.46875 -7.046875 C 2.039062 -6.847656 1.625 -6.503906 1.21875 -6.015625 L 1.0625 -6.15625 C 1.507812 -6.707031 2.03125 -7.144531 2.625 -7.46875 C 3.21875 -7.800781 3.875 -7.96875 4.59375 -7.96875 C 5.539062 -7.96875 6.242188 -7.71875 6.703125 -7.21875 C 7.160156 -6.71875 7.390625 -5.988281 7.390625 -5.03125 L 7.390625 -2 C 7.390625 -1.425781 7.425781 -1.003906 7.5 -0.734375 C 7.582031 -0.472656 7.753906 -0.300781 8.015625 -0.21875 L 8.015625 0 Z M 1.9375 -2.453125 C 1.9375 -1.941406 2.085938 -1.566406 2.390625 -1.328125 C 2.703125 -1.097656 3.035156 -0.984375 3.390625 -0.984375 C 3.785156 -0.984375 4.128906 -1.101562 4.421875 -1.34375 C 4.722656 -1.582031 4.972656 -1.882812 5.171875 -2.25 C 5.378906 -2.625 5.535156 -3.015625 5.640625 -3.421875 C 5.753906 -3.835938 5.8125 -4.222656 5.8125 -4.578125 L 5.8125 -4.984375 L 4.140625 -4.5 C 3.941406 -4.445312 3.71875 -4.367188 3.46875 -4.265625 C 3.226562 -4.171875 2.988281 -4.039062 2.75 -3.875 C 2.519531 -3.71875 2.328125 -3.519531 2.171875 -3.28125 C 2.015625 -3.050781 1.9375 -2.773438 1.9375 -2.453125 Z M 1.9375 -2.453125 "/></g></g></g><g clip-path="url(#8b80f9e6ea)"><g fill="#ebe9e8" fill-opacity="1"><g transform="translate(87.341686, 13.627756)"><g><path d="M 4.5625 0.140625 C 3.988281 0.140625 3.460938 0.0273438 2.984375 -0.1875 C 2.515625 -0.414062 2.132812 -0.691406 1.84375 -1.015625 L 1.1875 0 L 1.015625 0 L 1.015625 -10.328125 C 1.015625 -10.785156 0.957031 -11.085938 0.84375 -11.234375 C 0.738281 -11.378906 0.585938 -11.492188 0.390625 -11.578125 L 0.390625 -11.8125 L 2.46875 -12.71875 L 2.625 -12.59375 L 2.625 -7.046875 C 3.019531 -7.296875 3.441406 -7.507812 3.890625 -7.6875 C 4.335938 -7.875 4.785156 -7.96875 5.234375 -7.96875 C 5.972656 -7.96875 6.609375 -7.785156 7.140625 -7.421875 C 7.679688 -7.066406 8.09375 -6.597656 8.375 -6.015625 C 8.664062 -5.441406 8.8125 -4.832031 8.8125 -4.1875 C 8.8125 -3.382812 8.640625 -2.65625 8.296875 -2 C 7.953125 -1.34375 7.457031 -0.820312 6.8125 -0.4375 C 6.175781 -0.0507812 5.425781 0.140625 4.5625 0.140625 Z M 2.625 -2.765625 C 2.625 -2.460938 2.695312 -2.160156 2.84375 -1.859375 C 3 -1.554688 3.195312 -1.273438 3.4375 -1.015625 C 3.6875 -0.765625 3.960938 -0.5625 4.265625 -0.40625 C 4.578125 -0.257812 4.878906 -0.1875 5.171875 -0.1875 C 5.722656 -0.1875 6.148438 -0.316406 6.453125 -0.578125 C 6.765625 -0.847656 6.976562 -1.195312 7.09375 -1.625 C 7.21875 -2.0625 7.28125 -2.515625 7.28125 -2.984375 C 7.28125 -3.265625 7.25 -3.59375 7.1875 -3.96875 C 7.132812 -4.351562 7.039062 -4.738281 6.90625 -5.125 C 6.769531 -5.519531 6.582031 -5.882812 6.34375 -6.21875 C 6.113281 -6.5625 5.828125 -6.832031 5.484375 -7.03125 C 5.148438 -7.238281 4.75 -7.34375 4.28125 -7.34375 C 3.976562 -7.34375 3.691406 -7.289062 3.421875 -7.1875 C 3.148438 -7.09375 2.882812 -6.960938 2.625 -6.796875 Z M 2.625 -2.765625 "/></g></g></g></g><g fill="#ebe9e8" fill-opacity="1"><g transform="translate(97.274842, 13.627756)"><g><path d="M 4.6875 0.15625 C 4.164062 0.15625 3.65625 0.0820312 3.15625 -0.0625 C 2.664062 -0.21875 2.21875 -0.453125 1.8125 -0.765625 C 1.40625 -1.085938 1.082031 -1.492188 0.84375 -1.984375 C 0.601562 -2.472656 0.484375 -3.050781 0.484375 -3.71875 C 0.484375 -4.363281 0.597656 -4.941406 0.828125 -5.453125 C 1.054688 -5.972656 1.367188 -6.421875 1.765625 -6.796875 C 2.171875 -7.171875 2.625 -7.457031 3.125 -7.65625 C 3.625 -7.863281 4.144531 -7.96875 4.6875 -7.96875 C 5.175781 -7.96875 5.664062 -7.894531 6.15625 -7.75 C 6.644531 -7.601562 7.09375 -7.367188 7.5 -7.046875 C 7.914062 -6.734375 8.242188 -6.328125 8.484375 -5.828125 C 8.734375 -5.335938 8.859375 -4.75 8.859375 -4.0625 C 8.859375 -3.382812 8.726562 -2.785156 8.46875 -2.265625 C 8.21875 -1.742188 7.882812 -1.300781 7.46875 -0.9375 C 7.0625 -0.582031 6.609375 -0.3125 6.109375 -0.125 C 5.617188 0.0585938 5.144531 0.15625 4.6875 0.15625 Z M 2.0625 -4.90625 C 2.0625 -4.445312 2.128906 -3.941406 2.265625 -3.390625 C 2.398438 -2.847656 2.597656 -2.332031 2.859375 -1.84375 C 3.128906 -1.351562 3.460938 -0.953125 3.859375 -0.640625 C 4.265625 -0.335938 4.722656 -0.1875 5.234375 -0.1875 C 5.742188 -0.1875 6.148438 -0.316406 6.453125 -0.578125 C 6.753906 -0.835938 6.96875 -1.171875 7.09375 -1.578125 C 7.21875 -1.992188 7.28125 -2.421875 7.28125 -2.859375 C 7.28125 -3.359375 7.195312 -3.894531 7.03125 -4.46875 C 6.875 -5.039062 6.644531 -5.578125 6.34375 -6.078125 C 6.039062 -6.585938 5.679688 -6.988281 5.265625 -7.28125 C 4.847656 -7.582031 4.382812 -7.707031 3.875 -7.65625 C 3.425781 -7.613281 3.066406 -7.457031 2.796875 -7.1875 C 2.535156 -6.925781 2.347656 -6.59375 2.234375 -6.1875 C 2.117188 -5.78125 2.0625 -5.351562 2.0625 -4.90625 Z M 2.0625 -4.90625 "/></g></g></g><g fill="#ebe9e8" fill-opacity="1"><g transform="translate(107.255156, 13.627756)"><g><path d="M 0.4375 0 L 0.4375 -0.21875 C 0.695312 -0.300781 0.863281 -0.472656 0.9375 -0.734375 C 1.019531 -1.003906 1.0625 -1.425781 1.0625 -2 L 1.0625 -5.609375 C 1.0625 -6.066406 1.003906 -6.367188 0.890625 -6.515625 C 0.785156 -6.671875 0.632812 -6.789062 0.4375 -6.875 L 0.4375 -7.09375 L 2.515625 -8 L 2.671875 -7.875 L 2.671875 -6.5625 C 3.097656 -6.914062 3.585938 -7.238281 4.140625 -7.53125 C 4.703125 -7.820312 5.285156 -7.96875 5.890625 -7.96875 C 6.617188 -7.96875 7.203125 -7.765625 7.640625 -7.359375 C 8.085938 -6.960938 8.3125 -6.300781 8.3125 -5.375 L 8.3125 -2 C 8.3125 -1.425781 8.347656 -1.003906 8.421875 -0.734375 C 8.503906 -0.472656 8.675781 -0.300781 8.9375 -0.21875 L 8.9375 0 L 6.078125 0 L 6.078125 -0.21875 C 6.335938 -0.300781 6.507812 -0.472656 6.59375 -0.734375 C 6.675781 -1.003906 6.71875 -1.425781 6.71875 -2 L 6.71875 -5.09375 C 6.71875 -5.800781 6.566406 -6.351562 6.265625 -6.75 C 5.960938 -7.144531 5.519531 -7.34375 4.9375 -7.34375 C 4.570312 -7.34375 4.207031 -7.253906 3.84375 -7.078125 C 3.488281 -6.898438 3.097656 -6.632812 2.671875 -6.28125 L 2.671875 -2 C 2.671875 -1.425781 2.707031 -1.003906 2.78125 -0.734375 C 2.863281 -0.472656 3.035156 -0.300781 3.296875 -0.21875 L 3.296875 0 Z M 0.4375 0 "/></g></g></g><g fill="#ebe9e8" fill-opacity="1"><g transform="translate(116.983997, 13.627756)"><g><path d="M 0.4375 0 L 0.4375 -0.21875 C 0.695312 -0.300781 0.863281 -0.472656 0.9375 -0.734375 C 1.019531 -1.003906 1.0625 -1.425781 1.0625 -2 L 1.0625 -5.609375 C 1.0625 -6.066406 1.003906 -6.367188 0.890625 -6.515625 C 0.785156 -6.671875 0.632812 -6.789062 0.4375 -6.875 L 0.4375 -7.09375 L 2.515625 -8 L 2.671875 -7.875 L 2.671875 -2 C 2.671875 -1.425781 2.707031 -1.003906 2.78125 -0.734375 C 2.863281 -0.472656 3.035156 -0.300781 3.296875 -0.21875 L 3.296875 0 Z M 0.703125 -9.609375 C 0.703125 -9.910156 0.804688 -10.164062 1.015625 -10.375 C 1.234375 -10.582031 1.488281 -10.6875 1.78125 -10.6875 C 2.09375 -10.6875 2.347656 -10.582031 2.546875 -10.375 C 2.742188 -10.164062 2.84375 -9.910156 2.84375 -9.609375 C 2.84375 -9.304688 2.738281 -9.050781 2.53125 -8.84375 C 2.332031 -8.632812 2.082031 -8.53125 1.78125 -8.53125 C 1.488281 -8.53125 1.234375 -8.632812 1.015625 -8.84375 C 0.804688 -9.050781 0.703125 -9.304688 0.703125 -9.609375 Z M 0.703125 -9.609375 "/></g></g></g></g></g></g><g transform="matrix(1, 0, 0, 1, 61, 16)"><g clip-path="url(#5a87afad0a)"><g fill="#ebe9e8" fill-opacity="1"><g transform="translate(6.096511, 3.978001)"><g><path d="M 1.15625 -2.65625 C 1.300781 -2.65625 1.429688 -2.617188 1.546875 -2.546875 C 1.671875 -2.484375 1.765625 -2.390625 1.828125 -2.265625 C 1.890625 -2.140625 1.921875 -2 1.921875 -1.84375 C 1.921875 -1.6875 1.890625 -1.546875 1.828125 -1.421875 C 1.765625 -1.304688 1.671875 -1.210938 1.546875 -1.140625 C 1.429688 -1.078125 1.300781 -1.046875 1.15625 -1.046875 L 0.734375 -1.046875 C 0.722656 -1.046875 0.71875 -1.039062 0.71875 -1.03125 L 0.71875 -0.046875 C 0.71875 -0.0351562 0.710938 -0.0234375 0.703125 -0.015625 C 0.703125 -0.00390625 0.691406 0 0.671875 0 L 0.234375 0 C 0.222656 0 0.210938 -0.00390625 0.203125 -0.015625 C 0.191406 -0.0234375 0.1875 -0.0351562 0.1875 -0.046875 L 0.1875 -2.609375 C 0.1875 -2.617188 0.191406 -2.628906 0.203125 -2.640625 C 0.210938 -2.648438 0.222656 -2.65625 0.234375 -2.65625 Z M 1.0625 -1.46875 C 1.15625 -1.46875 1.234375 -1.5 1.296875 -1.5625 C 1.359375 -1.625 1.390625 -1.710938 1.390625 -1.828125 C 1.390625 -1.941406 1.359375 -2.03125 1.296875 -2.09375 C 1.234375 -2.15625 1.15625 -2.1875 1.0625 -2.1875 L 0.734375 -2.1875 C 0.722656 -2.1875 0.71875 -2.179688 0.71875 -2.171875 L 0.71875 -1.484375 C 0.71875 -1.472656 0.722656 -1.46875 0.734375 -1.46875 Z M 1.0625 -1.46875 "/></g></g></g><g fill="#ebe9e8" fill-opacity="1"><g transform="translate(9.826577, 3.978001)"><g><path d="M 1 0.03125 C 0.820312 0.03125 0.664062 0 0.53125 -0.0625 C 0.40625 -0.125 0.304688 -0.207031 0.234375 -0.3125 C 0.160156 -0.425781 0.125 -0.554688 0.125 -0.703125 L 0.125 -0.8125 C 0.125 -0.820312 0.128906 -0.832031 0.140625 -0.84375 C 0.148438 -0.851562 0.160156 -0.859375 0.171875 -0.859375 L 0.609375 -0.859375 C 0.617188 -0.859375 0.628906 -0.851562 0.640625 -0.84375 C 0.648438 -0.832031 0.65625 -0.820312 0.65625 -0.8125 L 0.65625 -0.734375 C 0.65625 -0.648438 0.6875 -0.578125 0.75 -0.515625 C 0.8125 -0.453125 0.898438 -0.421875 1.015625 -0.421875 C 1.109375 -0.421875 1.179688 -0.445312 1.234375 -0.5 C 1.285156 -0.550781 1.3125 -0.617188 1.3125 -0.703125 C 1.3125 -0.753906 1.296875 -0.800781 1.265625 -0.84375 C 1.234375 -0.882812 1.1875 -0.921875 1.125 -0.953125 C 1.070312 -0.992188 0.984375 -1.046875 0.859375 -1.109375 C 0.703125 -1.179688 0.578125 -1.25 0.484375 -1.3125 C 0.390625 -1.382812 0.304688 -1.472656 0.234375 -1.578125 C 0.171875 -1.679688 0.140625 -1.804688 0.140625 -1.953125 C 0.140625 -2.097656 0.171875 -2.222656 0.234375 -2.328125 C 0.304688 -2.441406 0.40625 -2.523438 0.53125 -2.578125 C 0.65625 -2.640625 0.800781 -2.671875 0.96875 -2.671875 C 1.132812 -2.671875 1.28125 -2.640625 1.40625 -2.578125 C 1.539062 -2.515625 1.644531 -2.425781 1.71875 -2.3125 C 1.789062 -2.195312 1.828125 -2.0625 1.828125 -1.90625 L 1.828125 -1.828125 C 1.828125 -1.816406 1.820312 -1.804688 1.8125 -1.796875 C 1.800781 -1.785156 1.789062 -1.78125 1.78125 -1.78125 L 1.34375 -1.78125 C 1.332031 -1.78125 1.320312 -1.785156 1.3125 -1.796875 C 1.300781 -1.804688 1.296875 -1.816406 1.296875 -1.828125 L 1.296875 -1.90625 C 1.296875 -1.988281 1.265625 -2.0625 1.203125 -2.125 C 1.140625 -2.1875 1.054688 -2.21875 0.953125 -2.21875 C 0.859375 -2.21875 0.785156 -2.191406 0.734375 -2.140625 C 0.679688 -2.097656 0.65625 -2.035156 0.65625 -1.953125 C 0.65625 -1.898438 0.671875 -1.847656 0.703125 -1.796875 C 0.734375 -1.753906 0.78125 -1.710938 0.84375 -1.671875 C 0.90625 -1.640625 1.003906 -1.59375 1.140625 -1.53125 L 1.21875 -1.484375 C 1.363281 -1.398438 1.472656 -1.328125 1.546875 -1.265625 C 1.628906 -1.210938 1.695312 -1.140625 1.75 -1.046875 C 1.8125 -0.953125 1.84375 -0.84375 1.84375 -0.71875 C 1.84375 -0.488281 1.765625 -0.304688 1.609375 -0.171875 C 1.453125 -0.0351562 1.25 0.03125 1 0.03125 Z M 1 0.03125 "/></g></g></g><g fill="#ebe9e8" fill-opacity="1"><g transform="translate(13.514992, 3.978001)"><g><path d="M 0.25 0 C 0.238281 0 0.226562 -0.00390625 0.21875 -0.015625 C 0.207031 -0.0234375 0.203125 -0.0351562 0.203125 -0.046875 L 0.203125 -2.59375 C 0.203125 -2.613281 0.207031 -2.625 0.21875 -2.625 C 0.226562 -2.632812 0.238281 -2.640625 0.25 -2.640625 L 0.6875 -2.640625 C 0.695312 -2.640625 0.707031 -2.632812 0.71875 -2.625 C 0.726562 -2.625 0.734375 -2.613281 0.734375 -2.59375 L 0.734375 -0.046875 C 0.734375 -0.0351562 0.726562 -0.0234375 0.71875 -0.015625 C 0.707031 -0.00390625 0.695312 0 0.6875 0 Z M 0.25 0 "/></g></g></g><g fill="#ebe9e8" fill-opacity="1"><g transform="translate(16.165799, 3.978001)"><g><path d="M 1.015625 0.03125 C 0.847656 0.03125 0.695312 0 0.5625 -0.0625 C 0.4375 -0.132812 0.335938 -0.234375 0.265625 -0.359375 C 0.191406 -0.484375 0.15625 -0.628906 0.15625 -0.796875 L 0.15625 -1.859375 C 0.15625 -2.015625 0.191406 -2.15625 0.265625 -2.28125 C 0.335938 -2.40625 0.4375 -2.5 0.5625 -2.5625 C 0.695312 -2.632812 0.847656 -2.671875 1.015625 -2.671875 C 1.191406 -2.671875 1.34375 -2.640625 1.46875 -2.578125 C 1.601562 -2.515625 1.707031 -2.421875 1.78125 -2.296875 C 1.851562 -2.171875 1.890625 -2.03125 1.890625 -1.875 L 1.890625 -1.859375 C 1.890625 -1.835938 1.882812 -1.820312 1.875 -1.8125 C 1.863281 -1.800781 1.851562 -1.796875 1.84375 -1.796875 L 1.40625 -1.78125 C 1.375 -1.78125 1.359375 -1.796875 1.359375 -1.828125 L 1.359375 -1.875 C 1.359375 -1.976562 1.328125 -2.0625 1.265625 -2.125 C 1.203125 -2.1875 1.117188 -2.21875 1.015625 -2.21875 C 0.921875 -2.21875 0.84375 -2.1875 0.78125 -2.125 C 0.71875 -2.0625 0.6875 -1.976562 0.6875 -1.875 L 0.6875 -0.765625 C 0.6875 -0.660156 0.71875 -0.578125 0.78125 -0.515625 C 0.84375 -0.453125 0.921875 -0.421875 1.015625 -0.421875 C 1.117188 -0.421875 1.203125 -0.453125 1.265625 -0.515625 C 1.328125 -0.578125 1.359375 -0.660156 1.359375 -0.765625 L 1.359375 -0.8125 C 1.359375 -0.84375 1.375 -0.859375 1.40625 -0.859375 L 1.84375 -0.84375 C 1.851562 -0.84375 1.863281 -0.835938 1.875 -0.828125 C 1.882812 -0.816406 1.890625 -0.804688 1.890625 -0.796875 L 1.890625 -0.78125 C 1.890625 -0.625 1.851562 -0.484375 1.78125 -0.359375 C 1.707031 -0.234375 1.601562 -0.132812 1.46875 -0.0625 C 1.34375 0 1.191406 0.03125 1.015625 0.03125 Z M 1.015625 0.03125 "/></g></g></g><g clip-path="url(#25e47e6aa5)"><g fill="#ebe9e8" fill-opacity="1"><g transform="translate(19.914804, 3.978001)"><g><path d="M 1.03125 0.03125 C 0.851562 0.03125 0.695312 0 0.5625 -0.0625 C 0.4375 -0.132812 0.335938 -0.234375 0.265625 -0.359375 C 0.191406 -0.492188 0.15625 -0.648438 0.15625 -0.828125 L 0.15625 -1.828125 C 0.15625 -1.992188 0.191406 -2.140625 0.265625 -2.265625 C 0.335938 -2.398438 0.4375 -2.5 0.5625 -2.5625 C 0.695312 -2.632812 0.851562 -2.671875 1.03125 -2.671875 C 1.207031 -2.671875 1.359375 -2.632812 1.484375 -2.5625 C 1.617188 -2.5 1.722656 -2.398438 1.796875 -2.265625 C 1.867188 -2.140625 1.90625 -1.992188 1.90625 -1.828125 L 1.90625 -0.828125 C 1.90625 -0.648438 1.867188 -0.492188 1.796875 -0.359375 C 1.722656 -0.234375 1.617188 -0.132812 1.484375 -0.0625 C 1.359375 0 1.207031 0.03125 1.03125 0.03125 Z M 1.03125 -0.421875 C 1.132812 -0.421875 1.21875 -0.453125 1.28125 -0.515625 C 1.34375 -0.585938 1.375 -0.679688 1.375 -0.796875 L 1.375 -1.84375 C 1.375 -1.957031 1.34375 -2.046875 1.28125 -2.109375 C 1.21875 -2.179688 1.132812 -2.21875 1.03125 -2.21875 C 0.925781 -2.21875 0.84375 -2.179688 0.78125 -2.109375 C 0.71875 -2.046875 0.6875 -1.957031 0.6875 -1.84375 L 0.6875 -0.796875 C 0.6875 -0.679688 0.71875 -0.585938 0.78125 -0.515625 C 0.84375 -0.453125 0.925781 -0.421875 1.03125 -0.421875 Z M 0.8125 -2.875 C 0.800781 -2.875 0.789062 -2.878906 0.78125 -2.890625 C 0.78125 -2.898438 0.78125 -2.914062 0.78125 -2.9375 L 1 -3.3125 C 1.007812 -3.332031 1.03125 -3.34375 1.0625 -3.34375 L 1.421875 -3.34375 C 1.441406 -3.34375 1.453125 -3.335938 1.453125 -3.328125 C 1.460938 -3.316406 1.460938 -3.304688 1.453125 -3.296875 L 1.171875 -2.90625 C 1.160156 -2.882812 1.144531 -2.875 1.125 -2.875 Z M 0.8125 -2.875 "/></g></g></g></g><g fill="#ebe9e8" fill-opacity="1"><g transform="translate(23.705461, 3.978001)"><g><path d="M 0.25 0 C 0.238281 0 0.226562 -0.00390625 0.21875 -0.015625 C 0.207031 -0.0234375 0.203125 -0.0351562 0.203125 -0.046875 L 0.203125 -2.59375 C 0.203125 -2.613281 0.207031 -2.625 0.21875 -2.625 C 0.226562 -2.632812 0.238281 -2.640625 0.25 -2.640625 L 0.6875 -2.640625 C 0.695312 -2.640625 0.707031 -2.632812 0.71875 -2.625 C 0.726562 -2.625 0.734375 -2.613281 0.734375 -2.59375 L 0.734375 -0.46875 C 0.734375 -0.457031 0.738281 -0.453125 0.75 -0.453125 L 1.765625 -0.453125 C 1.773438 -0.453125 1.785156 -0.445312 1.796875 -0.4375 C 1.804688 -0.4375 1.8125 -0.425781 1.8125 -0.40625 L 1.8125 -0.046875 C 1.8125 -0.0351562 1.804688 -0.0234375 1.796875 -0.015625 C 1.785156 -0.00390625 1.773438 0 1.765625 0 Z M 0.25 0 "/></g></g></g><g fill="#ebe9e8" fill-opacity="1"><g transform="translate(27.314347, 3.978001)"><g><path d="M 1.03125 0.03125 C 0.851562 0.03125 0.695312 0 0.5625 -0.0625 C 0.4375 -0.132812 0.335938 -0.234375 0.265625 -0.359375 C 0.191406 -0.492188 0.15625 -0.648438 0.15625 -0.828125 L 0.15625 -1.828125 C 0.15625 -1.992188 0.191406 -2.140625 0.265625 -2.265625 C 0.335938 -2.398438 0.4375 -2.5 0.5625 -2.5625 C 0.695312 -2.632812 0.851562 -2.671875 1.03125 -2.671875 C 1.207031 -2.671875 1.359375 -2.632812 1.484375 -2.5625 C 1.617188 -2.5 1.722656 -2.398438 1.796875 -2.265625 C 1.867188 -2.140625 1.90625 -1.992188 1.90625 -1.828125 L 1.90625 -0.828125 C 1.90625 -0.648438 1.867188 -0.492188 1.796875 -0.359375 C 1.722656 -0.234375 1.617188 -0.132812 1.484375 -0.0625 C 1.359375 0 1.207031 0.03125 1.03125 0.03125 Z M 1.03125 -0.421875 C 1.132812 -0.421875 1.21875 -0.453125 1.28125 -0.515625 C 1.34375 -0.585938 1.375 -0.679688 1.375 -0.796875 L 1.375 -1.84375 C 1.375 -1.957031 1.34375 -2.046875 1.28125 -2.109375 C 1.21875 -2.179688 1.132812 -2.21875 1.03125 -2.21875 C 0.925781 -2.21875 0.84375 -2.179688 0.78125 -2.109375 C 0.71875 -2.046875 0.6875 -1.957031 0.6875 -1.84375 L 0.6875 -0.796875 C 0.6875 -0.679688 0.71875 -0.585938 0.78125 -0.515625 C 0.84375 -0.453125 0.925781 -0.421875 1.03125 -0.421875 Z M 1.03125 -0.421875 "/></g></g></g><g fill="#ebe9e8" fill-opacity="1"><g transform="translate(31.105003, 3.978001)"><g><path d="M 1.015625 0.03125 C 0.847656 0.03125 0.695312 0 0.5625 -0.0625 C 0.4375 -0.132812 0.335938 -0.234375 0.265625 -0.359375 C 0.191406 -0.484375 0.15625 -0.628906 0.15625 -0.796875 L 0.15625 -1.859375 C 0.15625 -2.023438 0.191406 -2.164062 0.265625 -2.28125 C 0.335938 -2.40625 0.4375 -2.5 0.5625 -2.5625 C 0.695312 -2.632812 0.847656 -2.671875 1.015625 -2.671875 C 1.191406 -2.671875 1.34375 -2.640625 1.46875 -2.578125 C 1.601562 -2.515625 1.707031 -2.421875 1.78125 -2.296875 C 1.851562 -2.179688 1.890625 -2.046875 1.890625 -1.890625 L 1.890625 -1.8125 C 1.890625 -1.789062 1.882812 -1.773438 1.875 -1.765625 C 1.863281 -1.765625 1.851562 -1.765625 1.84375 -1.765625 L 1.40625 -1.765625 C 1.382812 -1.765625 1.367188 -1.765625 1.359375 -1.765625 C 1.359375 -1.773438 1.359375 -1.789062 1.359375 -1.8125 L 1.359375 -1.890625 C 1.359375 -1.984375 1.328125 -2.0625 1.265625 -2.125 C 1.203125 -2.1875 1.117188 -2.21875 1.015625 -2.21875 C 0.921875 -2.21875 0.84375 -2.179688 0.78125 -2.109375 C 0.71875 -2.046875 0.6875 -1.960938 0.6875 -1.859375 L 0.6875 -0.78125 C 0.6875 -0.675781 0.71875 -0.585938 0.78125 -0.515625 C 0.84375 -0.453125 0.925781 -0.421875 1.03125 -0.421875 C 1.132812 -0.421875 1.210938 -0.445312 1.265625 -0.5 C 1.328125 -0.5625 1.359375 -0.644531 1.359375 -0.75 L 1.359375 -0.984375 C 1.359375 -0.992188 1.351562 -1 1.34375 -1 L 1.046875 -1 C 1.035156 -1 1.023438 -1.003906 1.015625 -1.015625 C 1.003906 -1.023438 1 -1.035156 1 -1.046875 L 1 -1.390625 C 1 -1.410156 1.003906 -1.421875 1.015625 -1.421875 C 1.023438 -1.429688 1.035156 -1.4375 1.046875 -1.4375 L 1.84375 -1.4375 C 1.851562 -1.4375 1.863281 -1.429688 1.875 -1.421875 C 1.882812 -1.421875 1.890625 -1.410156 1.890625 -1.390625 L 1.890625 -0.796875 C 1.890625 -0.546875 1.8125 -0.34375 1.65625 -0.1875 C 1.5 -0.0390625 1.285156 0.03125 1.015625 0.03125 Z M 1.015625 0.03125 "/></g></g></g><g fill="#ebe9e8" fill-opacity="1"><g transform="translate(34.869151, 3.978001)"><g><path d="M 1.59375 0 C 1.570312 0 1.554688 -0.0078125 1.546875 -0.03125 L 1.453125 -0.40625 C 1.453125 -0.414062 1.445312 -0.421875 1.4375 -0.421875 L 0.734375 -0.421875 C 0.722656 -0.421875 0.71875 -0.414062 0.71875 -0.40625 L 0.625 -0.03125 C 0.613281 -0.0078125 0.597656 0 0.578125 0 L 0.125 0 C 0.09375 0 0.078125 -0.015625 0.078125 -0.046875 L 0.765625 -2.609375 C 0.773438 -2.628906 0.789062 -2.640625 0.8125 -2.640625 L 1.359375 -2.640625 C 1.390625 -2.640625 1.410156 -2.628906 1.421875 -2.609375 L 2.09375 -0.046875 L 2.109375 -0.03125 C 2.109375 -0.0078125 2.09375 0 2.0625 0 Z M 0.8125 -0.859375 C 0.8125 -0.847656 0.8125 -0.835938 0.8125 -0.828125 C 0.820312 -0.828125 0.828125 -0.828125 0.828125 -0.828125 L 1.328125 -0.828125 C 1.335938 -0.828125 1.34375 -0.828125 1.34375 -0.828125 C 1.351562 -0.835938 1.359375 -0.847656 1.359375 -0.859375 L 1.09375 -1.953125 C 1.09375 -1.960938 1.085938 -1.96875 1.078125 -1.96875 C 1.078125 -1.96875 1.070312 -1.960938 1.0625 -1.953125 Z M 0.8125 -0.859375 "/></g></g></g><g fill="#ebe9e8" fill-opacity="1"><g transform="translate(38.777877, 3.978001)"><g/></g></g><g fill="#ebe9e8" fill-opacity="1"><g transform="translate(0.958614, 9.027144)"><g><path d="M 1.015625 0.03125 C 0.847656 0.03125 0.695312 0 0.5625 -0.0625 C 0.4375 -0.132812 0.335938 -0.234375 0.265625 -0.359375 C 0.191406 -0.484375 0.15625 -0.628906 0.15625 -0.796875 L 0.15625 -1.859375 C 0.15625 -2.015625 0.191406 -2.15625 0.265625 -2.28125 C 0.335938 -2.40625 0.4375 -2.5 0.5625 -2.5625 C 0.695312 -2.632812 0.847656 -2.671875 1.015625 -2.671875 C 1.191406 -2.671875 1.34375 -2.640625 1.46875 -2.578125 C 1.601562 -2.515625 1.707031 -2.421875 1.78125 -2.296875 C 1.851562 -2.171875 1.890625 -2.03125 1.890625 -1.875 L 1.890625 -1.859375 C 1.890625 -1.835938 1.882812 -1.820312 1.875 -1.8125 C 1.863281 -1.800781 1.851562 -1.796875 1.84375 -1.796875 L 1.40625 -1.78125 C 1.375 -1.78125 1.359375 -1.796875 1.359375 -1.828125 L 1.359375 -1.875 C 1.359375 -1.976562 1.328125 -2.0625 1.265625 -2.125 C 1.203125 -2.1875 1.117188 -2.21875 1.015625 -2.21875 C 0.921875 -2.21875 0.84375 -2.1875 0.78125 -2.125 C 0.71875 -2.0625 0.6875 -1.976562 0.6875 -1.875 L 0.6875 -0.765625 C 0.6875 -0.660156 0.71875 -0.578125 0.78125 -0.515625 C 0.84375 -0.453125 0.921875 -0.421875 1.015625 -0.421875 C 1.117188 -0.421875 1.203125 -0.453125 1.265625 -0.515625 C 1.328125 -0.578125 1.359375 -0.660156 1.359375 -0.765625 L 1.359375 -0.8125 C 1.359375 -0.84375 1.375 -0.859375 1.40625 -0.859375 L 1.84375 -0.84375 C 1.851562 -0.84375 1.863281 -0.835938 1.875 -0.828125 C 1.882812 -0.816406 1.890625 -0.804688 1.890625 -0.796875 L 1.890625 -0.78125 C 1.890625 -0.625 1.851562 -0.484375 1.78125 -0.359375 C 1.707031 -0.234375 1.601562 -0.132812 1.46875 -0.0625 C 1.34375 0 1.191406 0.03125 1.015625 0.03125 Z M 1.015625 0.03125 "/></g></g></g><g fill="#ebe9e8" fill-opacity="1"><g transform="translate(4.707618, 9.027144)"><g><path d="M 1.4375 0 C 1.414062 0 1.398438 -0.0078125 1.390625 -0.03125 L 1.015625 -1.078125 C 1.003906 -1.085938 0.992188 -1.09375 0.984375 -1.09375 L 0.75 -1.09375 C 0.738281 -1.09375 0.734375 -1.085938 0.734375 -1.078125 L 0.734375 -0.046875 C 0.734375 -0.0351562 0.726562 -0.0234375 0.71875 -0.015625 C 0.707031 -0.00390625 0.695312 0 0.6875 0 L 0.25 0 C 0.238281 0 0.226562 -0.00390625 0.21875 -0.015625 C 0.207031 -0.0234375 0.203125 -0.0351562 0.203125 -0.046875 L 0.203125 -2.59375 C 0.203125 -2.613281 0.207031 -2.625 0.21875 -2.625 C 0.226562 -2.632812 0.238281 -2.640625 0.25 -2.640625 L 1.171875 -2.640625 C 1.316406 -2.640625 1.445312 -2.609375 1.5625 -2.546875 C 1.675781 -2.484375 1.765625 -2.390625 1.828125 -2.265625 C 1.890625 -2.140625 1.921875 -2 1.921875 -1.84375 C 1.921875 -1.6875 1.882812 -1.546875 1.8125 -1.421875 C 1.75 -1.304688 1.65625 -1.222656 1.53125 -1.171875 C 1.507812 -1.160156 1.503906 -1.148438 1.515625 -1.140625 L 1.9375 -0.046875 C 1.945312 -0.046875 1.953125 -0.0390625 1.953125 -0.03125 C 1.953125 -0.0078125 1.9375 0 1.90625 0 Z M 0.75 -2.1875 C 0.738281 -2.1875 0.734375 -2.179688 0.734375 -2.171875 L 0.734375 -1.53125 C 0.734375 -1.507812 0.738281 -1.5 0.75 -1.5 L 1.078125 -1.5 C 1.171875 -1.5 1.242188 -1.53125 1.296875 -1.59375 C 1.359375 -1.65625 1.390625 -1.738281 1.390625 -1.84375 C 1.390625 -1.945312 1.359375 -2.03125 1.296875 -2.09375 C 1.242188 -2.15625 1.171875 -2.1875 1.078125 -2.1875 Z M 0.75 -2.1875 "/></g></g></g><g fill="#ebe9e8" fill-opacity="1"><g transform="translate(8.483131, 9.027144)"><g><path d="M 1.15625 -2.65625 C 1.300781 -2.65625 1.429688 -2.617188 1.546875 -2.546875 C 1.671875 -2.484375 1.765625 -2.390625 1.828125 -2.265625 C 1.890625 -2.140625 1.921875 -2 1.921875 -1.84375 C 1.921875 -1.6875 1.890625 -1.546875 1.828125 -1.421875 C 1.765625 -1.304688 1.671875 -1.210938 1.546875 -1.140625 C 1.429688 -1.078125 1.300781 -1.046875 1.15625 -1.046875 L 0.734375 -1.046875 C 0.722656 -1.046875 0.71875 -1.039062 0.71875 -1.03125 L 0.71875 -0.046875 C 0.71875 -0.0351562 0.710938 -0.0234375 0.703125 -0.015625 C 0.703125 -0.00390625 0.691406 0 0.671875 0 L 0.234375 0 C 0.222656 0 0.210938 -0.00390625 0.203125 -0.015625 C 0.191406 -0.0234375 0.1875 -0.0351562 0.1875 -0.046875 L 0.1875 -2.609375 C 0.1875 -2.617188 0.191406 -2.628906 0.203125 -2.640625 C 0.210938 -2.648438 0.222656 -2.65625 0.234375 -2.65625 Z M 1.0625 -1.46875 C 1.15625 -1.46875 1.234375 -1.5 1.296875 -1.5625 C 1.359375 -1.625 1.390625 -1.710938 1.390625 -1.828125 C 1.390625 -1.941406 1.359375 -2.03125 1.296875 -2.09375 C 1.234375 -2.15625 1.15625 -2.1875 1.0625 -2.1875 L 0.734375 -2.1875 C 0.722656 -2.1875 0.71875 -2.179688 0.71875 -2.171875 L 0.71875 -1.484375 C 0.71875 -1.472656 0.722656 -1.46875 0.734375 -1.46875 Z M 1.0625 -1.46875 "/></g></g></g><g fill="#ebe9e8" fill-opacity="1"><g transform="translate(12.213197, 9.027144)"><g/></g></g><g fill="#ebe9e8" fill-opacity="1"><g transform="translate(14.689809, 9.027144)"><g><path d="M 0.96875 0.046875 C 0.71875 0.046875 0.515625 -0.0234375 0.359375 -0.171875 C 0.210938 -0.328125 0.140625 -0.53125 0.140625 -0.78125 L 0.140625 -1.875 C 0.140625 -2.125 0.210938 -2.320312 0.359375 -2.46875 C 0.515625 -2.613281 0.71875 -2.6875 0.96875 -2.6875 C 1.21875 -2.6875 1.414062 -2.613281 1.5625 -2.46875 C 1.707031 -2.320312 1.78125 -2.125 1.78125 -1.875 L 1.78125 -0.78125 C 1.78125 -0.53125 1.707031 -0.328125 1.5625 -0.171875 C 1.414062 -0.0234375 1.21875 0.046875 0.96875 0.046875 Z M 0.96875 -0.421875 C 1.050781 -0.421875 1.117188 -0.445312 1.171875 -0.5 C 1.222656 -0.5625 1.25 -0.644531 1.25 -0.75 L 1.25 -1.890625 C 1.25 -1.992188 1.222656 -2.070312 1.171875 -2.125 C 1.117188 -2.1875 1.050781 -2.21875 0.96875 -2.21875 C 0.875 -2.21875 0.800781 -2.1875 0.75 -2.125 C 0.695312 -2.070312 0.671875 -1.992188 0.671875 -1.890625 L 0.671875 -0.75 C 0.671875 -0.644531 0.695312 -0.5625 0.75 -0.5 C 0.800781 -0.445312 0.875 -0.421875 0.96875 -0.421875 Z M 0.96875 -0.421875 "/></g></g></g><g fill="#ebe9e8" fill-opacity="1"><g transform="translate(18.344141, 9.027144)"><g><path d="M 1.671875 -1.25 C 1.722656 -1.125 1.75 -0.984375 1.75 -0.828125 C 1.75 -0.703125 1.726562 -0.585938 1.6875 -0.484375 C 1.644531 -0.316406 1.554688 -0.1875 1.421875 -0.09375 C 1.296875 -0.0078125 1.132812 0.03125 0.9375 0.03125 C 0.78125 0.03125 0.640625 -0.00390625 0.515625 -0.078125 C 0.398438 -0.148438 0.3125 -0.25 0.25 -0.375 C 0.25 -0.382812 0.242188 -0.394531 0.234375 -0.40625 C 0.171875 -0.507812 0.140625 -0.644531 0.140625 -0.8125 L 0.140625 -2 C 0.140625 -2.207031 0.210938 -2.367188 0.359375 -2.484375 C 0.503906 -2.609375 0.691406 -2.671875 0.921875 -2.671875 C 1.148438 -2.671875 1.332031 -2.609375 1.46875 -2.484375 C 1.613281 -2.367188 1.6875 -2.207031 1.6875 -2 L 1.6875 -1.890625 C 1.6875 -1.878906 1.679688 -1.867188 1.671875 -1.859375 C 1.660156 -1.847656 1.648438 -1.84375 1.640625 -1.84375 L 1.203125 -1.84375 C 1.191406 -1.84375 1.179688 -1.847656 1.171875 -1.859375 C 1.160156 -1.867188 1.15625 -1.878906 1.15625 -1.890625 L 1.15625 -1.953125 C 1.15625 -2.023438 1.132812 -2.085938 1.09375 -2.140625 C 1.050781 -2.191406 0.992188 -2.21875 0.921875 -2.21875 C 0.847656 -2.21875 0.785156 -2.191406 0.734375 -2.140625 C 0.691406 -2.085938 0.671875 -2.019531 0.671875 -1.9375 L 0.671875 -1.578125 C 0.671875 -1.566406 0.671875 -1.5625 0.671875 -1.5625 C 0.679688 -1.5625 0.691406 -1.5625 0.703125 -1.5625 C 0.796875 -1.644531 0.910156 -1.6875 1.046875 -1.6875 C 1.191406 -1.6875 1.316406 -1.644531 1.421875 -1.5625 C 1.535156 -1.488281 1.617188 -1.382812 1.671875 -1.25 Z M 1.171875 -0.625 C 1.191406 -0.6875 1.203125 -0.757812 1.203125 -0.84375 C 1.203125 -0.945312 1.191406 -1.03125 1.171875 -1.09375 C 1.128906 -1.207031 1.050781 -1.265625 0.9375 -1.265625 C 0.832031 -1.265625 0.757812 -1.207031 0.71875 -1.09375 C 0.6875 -1.03125 0.671875 -0.945312 0.671875 -0.84375 C 0.671875 -0.757812 0.679688 -0.6875 0.703125 -0.625 C 0.734375 -0.5 0.8125 -0.4375 0.9375 -0.4375 C 1.050781 -0.4375 1.128906 -0.5 1.171875 -0.625 Z M 1.171875 -0.625 "/></g></g></g><g fill="#ebe9e8" fill-opacity="1"><g transform="translate(21.911375, 9.027144)"><g><path d="M 0.125 0 C 0.101562 0 0.0859375 -0.00390625 0.078125 -0.015625 C 0.078125 -0.0234375 0.078125 -0.0351562 0.078125 -0.046875 L 0.984375 -2.609375 C 0.992188 -2.628906 1.007812 -2.640625 1.03125 -2.640625 L 1.46875 -2.640625 C 1.476562 -2.640625 1.488281 -2.632812 1.5 -2.625 C 1.507812 -2.625 1.507812 -2.613281 1.5 -2.59375 L 0.609375 -0.03125 C 0.597656 -0.0078125 0.582031 0 0.5625 0 Z M 0.125 0 "/></g></g></g><g fill="#ebe9e8" fill-opacity="1"><g transform="translate(25.311983, 9.027144)"><g><path d="M 0.8125 -0.484375 C 0.8125 -0.472656 0.8125 -0.460938 0.8125 -0.453125 C 0.8125 -0.453125 0.816406 -0.453125 0.828125 -0.453125 L 1.734375 -0.453125 C 1.742188 -0.453125 1.753906 -0.445312 1.765625 -0.4375 C 1.773438 -0.4375 1.78125 -0.425781 1.78125 -0.40625 L 1.78125 -0.046875 C 1.78125 -0.0351562 1.773438 -0.0234375 1.765625 -0.015625 C 1.753906 -0.00390625 1.742188 0 1.734375 0 L 0.1875 0 C 0.164062 0 0.148438 -0.00390625 0.140625 -0.015625 C 0.140625 -0.0234375 0.140625 -0.0351562 0.140625 -0.046875 L 0.140625 -0.40625 C 0.140625 -0.425781 0.144531 -0.445312 0.15625 -0.46875 C 0.457031 -0.8125 0.710938 -1.113281 0.921875 -1.375 C 1.097656 -1.613281 1.1875 -1.800781 1.1875 -1.9375 C 1.1875 -2.019531 1.160156 -2.085938 1.109375 -2.140625 C 1.066406 -2.191406 1.003906 -2.21875 0.921875 -2.21875 C 0.847656 -2.21875 0.785156 -2.191406 0.734375 -2.140625 C 0.679688 -2.085938 0.65625 -2.019531 0.65625 -1.9375 L 0.65625 -1.8125 C 0.65625 -1.800781 0.648438 -1.789062 0.640625 -1.78125 C 0.640625 -1.769531 0.628906 -1.765625 0.609375 -1.765625 L 0.171875 -1.765625 C 0.148438 -1.765625 0.132812 -1.769531 0.125 -1.78125 C 0.125 -1.789062 0.125 -1.800781 0.125 -1.8125 L 0.125 -2 C 0.132812 -2.195312 0.210938 -2.359375 0.359375 -2.484375 C 0.515625 -2.609375 0.707031 -2.671875 0.9375 -2.671875 C 1.09375 -2.671875 1.226562 -2.640625 1.34375 -2.578125 C 1.46875 -2.515625 1.5625 -2.425781 1.625 -2.3125 C 1.695312 -2.195312 1.734375 -2.070312 1.734375 -1.9375 C 1.734375 -1.820312 1.707031 -1.707031 1.65625 -1.59375 C 1.613281 -1.476562 1.539062 -1.351562 1.4375 -1.21875 C 1.375 -1.132812 1.296875 -1.039062 1.203125 -0.9375 C 1.117188 -0.832031 1.035156 -0.734375 0.953125 -0.640625 Z M 0.8125 -0.484375 "/></g></g></g><g fill="#ebe9e8" fill-opacity="1"><g transform="translate(28.920869, 9.027144)"><g><path d="M 0.46875 -2.640625 C 0.488281 -2.640625 0.507812 -2.640625 0.53125 -2.640625 L 0.984375 -2.640625 C 0.992188 -2.640625 1.003906 -2.632812 1.015625 -2.625 C 1.023438 -2.625 1.03125 -2.613281 1.03125 -2.59375 L 1.03125 -0.046875 C 1.03125 -0.0351562 1.023438 -0.0234375 1.015625 -0.015625 C 1.003906 -0.00390625 0.992188 0 0.984375 0 L 0.546875 0 C 0.535156 0 0.523438 -0.00390625 0.515625 -0.015625 C 0.503906 -0.0234375 0.5 -0.0351562 0.5 -0.046875 L 0.5 -2.109375 C 0.5 -2.117188 0.492188 -2.125 0.484375 -2.125 L 0.140625 -2.0625 L 0.125 -2.0625 C 0.101562 -2.0625 0.09375 -2.078125 0.09375 -2.109375 L 0.078125 -2.421875 C 0.078125 -2.453125 0.09375 -2.472656 0.125 -2.484375 Z M 0.46875 -2.640625 "/></g></g></g><g fill="#ebe9e8" fill-opacity="1"><g transform="translate(31.848119, 9.027144)"><g><path d="M 0.96875 0.046875 C 0.71875 0.046875 0.515625 -0.0234375 0.359375 -0.171875 C 0.210938 -0.328125 0.140625 -0.53125 0.140625 -0.78125 L 0.140625 -1.875 C 0.140625 -2.125 0.210938 -2.320312 0.359375 -2.46875 C 0.515625 -2.613281 0.71875 -2.6875 0.96875 -2.6875 C 1.21875 -2.6875 1.414062 -2.613281 1.5625 -2.46875 C 1.707031 -2.320312 1.78125 -2.125 1.78125 -1.875 L 1.78125 -0.78125 C 1.78125 -0.53125 1.707031 -0.328125 1.5625 -0.171875 C 1.414062 -0.0234375 1.21875 0.046875 0.96875 0.046875 Z M 0.96875 -0.421875 C 1.050781 -0.421875 1.117188 -0.445312 1.171875 -0.5 C 1.222656 -0.5625 1.25 -0.644531 1.25 -0.75 L 1.25 -1.890625 C 1.25 -1.992188 1.222656 -2.070312 1.171875 -2.125 C 1.117188 -2.1875 1.050781 -2.21875 0.96875 -2.21875 C 0.875 -2.21875 0.800781 -2.1875 0.75 -2.125 C 0.695312 -2.070312 0.671875 -1.992188 0.671875 -1.890625 L 0.671875 -0.75 C 0.671875 -0.644531 0.695312 -0.5625 0.75 -0.5 C 0.800781 -0.445312 0.875 -0.421875 0.96875 -0.421875 Z M 0.96875 -0.421875 "/></g></g></g><g fill="#ebe9e8" fill-opacity="1"><g transform="translate(35.502452, 9.027144)"><g><path d="M 1.6875 -0.65625 C 1.6875 -0.445312 1.613281 -0.28125 1.46875 -0.15625 C 1.320312 -0.03125 1.128906 0.03125 0.890625 0.03125 C 0.671875 0.03125 0.488281 -0.03125 0.34375 -0.15625 C 0.195312 -0.28125 0.125 -0.441406 0.125 -0.640625 L 0.125 -0.75 C 0.125 -0.769531 0.128906 -0.78125 0.140625 -0.78125 C 0.148438 -0.789062 0.160156 -0.796875 0.171875 -0.796875 L 0.625 -0.796875 C 0.632812 -0.796875 0.644531 -0.789062 0.65625 -0.78125 C 0.664062 -0.78125 0.671875 -0.769531 0.671875 -0.75 L 0.671875 -0.703125 C 0.671875 -0.617188 0.691406 -0.550781 0.734375 -0.5 C 0.773438 -0.457031 0.828125 -0.4375 0.890625 -0.4375 C 0.960938 -0.4375 1.019531 -0.460938 1.0625 -0.515625 C 1.113281 -0.566406 1.140625 -0.628906 1.140625 -0.703125 L 1.140625 -1.0625 C 1.140625 -1.070312 1.132812 -1.078125 1.125 -1.078125 C 1.03125 -0.992188 0.914062 -0.953125 0.78125 -0.953125 C 0.632812 -0.953125 0.503906 -0.988281 0.390625 -1.0625 C 0.285156 -1.144531 0.207031 -1.257812 0.15625 -1.40625 C 0.101562 -1.519531 0.078125 -1.65625 0.078125 -1.8125 C 0.078125 -1.9375 0.09375 -2.050781 0.125 -2.15625 C 0.175781 -2.320312 0.265625 -2.445312 0.390625 -2.53125 C 0.523438 -2.625 0.6875 -2.671875 0.875 -2.671875 C 1.039062 -2.671875 1.179688 -2.632812 1.296875 -2.5625 C 1.421875 -2.5 1.507812 -2.398438 1.5625 -2.265625 L 1.578125 -2.25 C 1.640625 -2.132812 1.671875 -1.992188 1.671875 -1.828125 Z M 0.890625 -1.390625 C 0.992188 -1.390625 1.066406 -1.441406 1.109375 -1.546875 C 1.128906 -1.609375 1.140625 -1.691406 1.140625 -1.796875 C 1.140625 -1.890625 1.132812 -1.96875 1.125 -2.03125 C 1.082031 -2.15625 1.003906 -2.21875 0.890625 -2.21875 C 0.765625 -2.21875 0.679688 -2.148438 0.640625 -2.015625 C 0.628906 -1.953125 0.625 -1.878906 0.625 -1.796875 C 0.625 -1.703125 0.632812 -1.617188 0.65625 -1.546875 C 0.695312 -1.441406 0.773438 -1.390625 0.890625 -1.390625 Z M 0.890625 -1.390625 "/></g></g></g><g fill="#ebe9e8" fill-opacity="1"><g transform="translate(39.046963, 9.027144)"><g><path d="M 1.890625 -1.15625 C 1.910156 -1.15625 1.921875 -1.148438 1.921875 -1.140625 C 1.929688 -1.128906 1.9375 -1.117188 1.9375 -1.109375 L 1.9375 -0.71875 C 1.9375 -0.707031 1.929688 -0.695312 1.921875 -0.6875 C 1.921875 -0.675781 1.910156 -0.671875 1.890625 -0.671875 L 1.765625 -0.671875 C 1.742188 -0.671875 1.734375 -0.664062 1.734375 -0.65625 L 1.734375 -0.046875 C 1.734375 -0.0351562 1.726562 -0.0234375 1.71875 -0.015625 C 1.71875 -0.00390625 1.707031 0 1.6875 0 L 1.25 0 C 1.238281 0 1.226562 -0.00390625 1.21875 -0.015625 C 1.207031 -0.0234375 1.203125 -0.0351562 1.203125 -0.046875 L 1.203125 -0.65625 C 1.203125 -0.664062 1.195312 -0.671875 1.1875 -0.671875 L 0.125 -0.671875 C 0.113281 -0.671875 0.101562 -0.675781 0.09375 -0.6875 C 0.09375 -0.695312 0.09375 -0.707031 0.09375 -0.71875 L 0.09375 -1.03125 C 0.09375 -1.039062 0.09375 -1.054688 0.09375 -1.078125 L 0.6875 -2.609375 C 0.695312 -2.628906 0.710938 -2.640625 0.734375 -2.640625 L 1.21875 -2.640625 C 1.25 -2.640625 1.257812 -2.625 1.25 -2.59375 L 0.703125 -1.171875 C 0.703125 -1.160156 0.707031 -1.15625 0.71875 -1.15625 L 1.1875 -1.15625 C 1.195312 -1.15625 1.203125 -1.160156 1.203125 -1.171875 L 1.203125 -1.609375 C 1.203125 -1.617188 1.207031 -1.628906 1.21875 -1.640625 C 1.226562 -1.648438 1.238281 -1.65625 1.25 -1.65625 L 1.6875 -1.65625 C 1.707031 -1.65625 1.71875 -1.648438 1.71875 -1.640625 C 1.726562 -1.628906 1.734375 -1.617188 1.734375 -1.609375 L 1.734375 -1.171875 C 1.734375 -1.160156 1.742188 -1.15625 1.765625 -1.15625 Z M 1.890625 -1.15625 "/></g></g></g><g fill="#ebe9e8" fill-opacity="1"><g transform="translate(42.82626, 9.027144)"><g><path d="M 1.671875 -1.28125 C 1.722656 -1.144531 1.75 -0.992188 1.75 -0.828125 C 1.75 -0.710938 1.734375 -0.601562 1.703125 -0.5 C 1.648438 -0.332031 1.554688 -0.203125 1.421875 -0.109375 C 1.296875 -0.015625 1.132812 0.03125 0.9375 0.03125 C 0.738281 0.03125 0.570312 -0.015625 0.4375 -0.109375 C 0.300781 -0.210938 0.210938 -0.351562 0.171875 -0.53125 C 0.148438 -0.582031 0.140625 -0.632812 0.140625 -0.6875 L 0.140625 -0.703125 C 0.140625 -0.722656 0.15625 -0.734375 0.1875 -0.734375 L 0.640625 -0.734375 C 0.671875 -0.734375 0.6875 -0.71875 0.6875 -0.6875 C 0.6875 -0.65625 0.691406 -0.632812 0.703125 -0.625 C 0.710938 -0.5625 0.738281 -0.515625 0.78125 -0.484375 C 0.820312 -0.453125 0.875 -0.4375 0.9375 -0.4375 C 1 -0.4375 1.050781 -0.453125 1.09375 -0.484375 C 1.132812 -0.523438 1.160156 -0.578125 1.171875 -0.640625 C 1.191406 -0.691406 1.203125 -0.753906 1.203125 -0.828125 C 1.203125 -0.910156 1.191406 -0.984375 1.171875 -1.046875 C 1.160156 -1.109375 1.132812 -1.148438 1.09375 -1.171875 C 1.050781 -1.203125 1 -1.21875 0.9375 -1.21875 C 0.820312 -1.21875 0.742188 -1.171875 0.703125 -1.078125 C 0.691406 -1.054688 0.671875 -1.046875 0.640625 -1.046875 L 0.1875 -1.046875 C 0.175781 -1.046875 0.164062 -1.046875 0.15625 -1.046875 C 0.144531 -1.054688 0.140625 -1.066406 0.140625 -1.078125 L 0.140625 -2.59375 C 0.140625 -2.613281 0.144531 -2.625 0.15625 -2.625 C 0.164062 -2.632812 0.175781 -2.640625 0.1875 -2.640625 L 1.640625 -2.640625 C 1.648438 -2.640625 1.65625 -2.632812 1.65625 -2.625 C 1.664062 -2.625 1.671875 -2.613281 1.671875 -2.59375 L 1.671875 -2.234375 C 1.671875 -2.222656 1.664062 -2.210938 1.65625 -2.203125 C 1.65625 -2.191406 1.648438 -2.1875 1.640625 -2.1875 L 0.703125 -2.1875 C 0.679688 -2.1875 0.671875 -2.179688 0.671875 -2.171875 L 0.671875 -1.578125 C 0.671875 -1.566406 0.671875 -1.5625 0.671875 -1.5625 C 0.679688 -1.5625 0.691406 -1.5625 0.703125 -1.5625 C 0.796875 -1.644531 0.914062 -1.6875 1.0625 -1.6875 C 1.207031 -1.6875 1.332031 -1.648438 1.4375 -1.578125 C 1.539062 -1.503906 1.617188 -1.40625 1.671875 -1.28125 Z M 1.671875 -1.28125 "/></g></g></g></g></g></g></g><path fill="#f1f0ef" d="M 136.671875 13.53125 C 137.8125 14.894531 138.839844 15.667969 139.753906 15.847656 L 139.4375 16.140625 C 138.910156 11.859375 139.570312 8.089844 141.414062 4.828125 L 141.417969 4.816406 C 143.441406 1.609375 145.734375 0.679688 148.296875 2.03125 C 148.316406 2.042969 148.335938 2.054688 148.351562 2.070312 C 149.921875 3.507812 150.179688 6.210938 149.125 10.183594 L 149.113281 10.210938 C 148.519531 11.753906 147.488281 13.195312 146.019531 14.53125 L 146.007812 14.542969 C 144.753906 15.558594 143.886719 15.773438 143.417969 15.191406 C 143.335938 15.089844 143.269531 14.96875 143.222656 14.828125 C 143.210938 14.796875 143.207031 14.769531 143.207031 14.738281 C 143.222656 13.847656 143.726562 13.292969 144.71875 13.078125 L 144.730469 13.074219 C 145.558594 12.929688 146.519531 13.183594 147.609375 13.839844 C 149.972656 15.261719 150.8125 16.867188 150.132812 18.652344 L 150.109375 18.695312 C 149.226562 20.136719 147.984375 20.777344 146.382812 20.613281 L 146.367188 20.613281 C 145.925781 20.539062 145.523438 20.394531 145.164062 20.183594 L 145.140625 20.167969 C 143.054688 18.632812 141.628906 17.722656 140.871094 17.433594 C 140.734375 17.378906 140.664062 17.226562 140.71875 17.089844 C 140.769531 16.953125 140.921875 16.882812 141.058594 16.933594 C 141.863281 17.242188 143.328125 18.175781 145.457031 19.738281 L 145.433594 19.722656 C 145.738281 19.902344 146.078125 20.023438 146.457031 20.085938 L 146.4375 20.085938 C 147.816406 20.226562 148.890625 19.671875 149.65625 18.417969 L 149.636719 18.460938 C 150.210938 16.953125 149.445312 15.566406 147.335938 14.296875 C 146.359375 13.707031 145.519531 13.476562 144.824219 13.597656 L 144.832031 13.597656 C 144.113281 13.753906 143.75 14.136719 143.738281 14.746094 L 143.722656 14.652344 C 143.753906 14.738281 143.789062 14.804688 143.828125 14.855469 C 144.078125 15.164062 144.695312 14.921875 145.671875 14.128906 L 145.660156 14.136719 C 147.066406 12.855469 148.054688 11.484375 148.617188 10.019531 L 148.609375 10.046875 C 149.609375 6.28125 149.402344 3.753906 147.992188 2.460938 L 148.046875 2.5 C 145.777344 1.304688 143.71875 2.171875 141.867188 5.101562 L 141.875 5.089844 C 140.089844 8.25 139.453125 11.914062 139.964844 16.074219 C 139.976562 16.160156 139.945312 16.246094 139.882812 16.304688 C 139.820312 16.359375 139.734375 16.386719 139.648438 16.367188 C 138.617188 16.164062 137.488281 15.332031 136.265625 13.871094 C 136.171875 13.757812 136.183594 13.59375 136.296875 13.496094 C 136.410156 13.402344 136.578125 13.417969 136.671875 13.53125 Z M 136.671875 13.53125 " fill-opacity="1" fill-rule="nonzero"/><g clip-path="url(#7b1e028552)"><path fill="#f1f0ef" d="M 138.527344 17.046875 C 138.515625 17.046875 138.503906 17.046875 138.496094 17.046875 C 138.429688 17.050781 138.371094 17.054688 138.324219 17.066406 C 138.140625 17.113281 138.050781 17.21875 138.054688 17.386719 C 138.054688 17.488281 138.117188 17.582031 138.210938 17.625 C 138.933594 17.945312 139.589844 18.394531 140.1875 18.96875 C 140.949219 19.753906 141.449219 20.441406 141.6875 21.035156 C 141.730469 21.140625 141.828125 21.203125 141.933594 21.203125 C 141.964844 21.203125 142 21.195312 142.03125 21.183594 C 142.085938 21.160156 142.128906 21.125 142.160156 21.078125 L 142.152344 21.078125 C 142.273438 21.035156 142.347656 20.910156 142.324219 20.78125 C 142.140625 19.707031 141.859375 18.9375 141.476562 18.46875 C 141.113281 18.023438 140.660156 17.679688 140.105469 17.441406 L 140.097656 17.4375 C 139.640625 17.253906 139.269531 17.140625 138.988281 17.085938 L 138.976562 17.085938 C 138.789062 17.0625 138.640625 17.046875 138.527344 17.046875 Z M 138.527344 17.046875 " fill-opacity="1" fill-rule="nonzero"/></g><path fill="#f1f0ef" d="M 139.535156 5.253906 C 138.851562 3.988281 138.046875 3.199219 137.121094 2.882812 L 137.15625 2.894531 C 136.492188 2.757812 136.058594 3.15625 135.851562 4.097656 L 135.84375 4.121094 C 135.597656 4.890625 135.699219 6.144531 136.148438 7.886719 L 136.148438 7.882812 C 136.535156 9.320312 137.210938 10.859375 138.171875 12.511719 C 138.246094 12.636719 138.203125 12.800781 138.074219 12.875 C 137.949219 12.949219 137.785156 12.90625 137.710938 12.777344 C 136.726562 11.089844 136.035156 9.503906 135.632812 8.023438 L 135.632812 8.019531 C 135.15625 6.179688 135.058594 4.824219 135.335938 3.957031 L 135.332031 3.980469 C 135.613281 2.703125 136.257812 2.164062 137.261719 2.371094 L 137.292969 2.378906 C 138.347656 2.738281 139.253906 3.613281 140.003906 5 C 140.074219 5.128906 140.027344 5.289062 139.898438 5.359375 C 139.769531 5.429688 139.605469 5.382812 139.535156 5.253906 Z M 139.535156 5.253906 " fill-opacity="1" fill-rule="nonzero"/></svg>